/* XPM */
static char *result[] = {
/* columns rows colors chars-per-pixel */
"32 32 11 1 ",
"  c black",
". c #36271C",
"X c #171C31",
"o c #503625",
"O c #6E5649",
"+ c #947B6B",
"@ c #677598",
"# c #8F9AB0",
"$ c #C6BBB9",
"% c #B6BEC8",
"& c None",
/* pixels */
"&&&&&&&&&&&&&&&&&&&&&&&&&&&&&&&&",
"&&&&&&&&&&&&&&&&&&&&&&&&&&&&&&&&",
"&&&&&&&&&&&&&&&&&&&&&&&&&&&&&&&&",
"&&&&&&&&&&&&&&&&&&&&&&&&&&&&&&&&",
"&&&&&&&&&&&&&&&&&&&&&&&&&&&&&&&&",
"&&&&&&&&&&&&&&&&&&&&&&&&&&&&&&&&",
"&&&&&&&&&&&&&&&&&&&&&&&&&&&&&&&&",
"&&&&&&&&&&&&&&&&&&&&&&&&&&&&&&&&",
"&&&&&&&&&&&&&&&&&&&&&&&&&&&&&&&&",
"&&&&&&&&&&&&&      &&&&&&&&&&&&&",
"&    &&&&&&& $$$$$$ &&&&&&&&&&&&",
"& %%%  &&&& $$$$$$$$ &&&&&&&&&&&",
"& %%#%%  & $$$$$$$$$ &&&&&&&&&&&",
"& %@@@#%%  $$$+++$++ &&&&&&&&&&&",
"&&  @@@@#%#oo$$  $  &&&&&&&&&&&&",
"&&&&  @@@@#o.$$  $   &&&&&&&&&&&",
"&&&&&&  @@$$O+$$$$$$ &&&&&&&&&&&",
"&&&&&&&& o$$$$O$O$O$ &&&&&&&&&&&",
"&&&&&&&& o. $$.OOOOO &&&&&&&&&&&",
"&&&&&&&&&  & ..+++  &&&&&&&&&&&&",
"&&&&&&&&&&&& O+$$$O$ &&&&&&&&&&&",
"&&&&&&&&&&&& +..OO.OO &&&&&&&&&&",
"&&&&&&&&&&&& O+$$$+$$ &&&&&&&&&&",
"&&&&&&&&&&&& +$$$ +++ &&&&&&&&&&",
"&&&&&&&&&&&& $$$  +++ X&&&&&&&&&",
"&&&&&&&&&&&X $$ X ++ XXX&&&&&&&&",
"&&&&&&&&&&&XXXXXXXXXXXXX&&&&&&&&",
"&&&&&&&&&&&&XXXXXXXXXXX&&&&&&&&&",
"&&&&&&&&&&&&&&&&&&&&&&&&&&&&&&&&",
"&&&&&&&&&&&&&&&&&&&&&&&&&&&&&&&&",
"&&&&&&&&&&&&&&&&&&&&&&&&&&&&&&&&",
"&&&&&&&&&&&&&&&&&&&&&&&&&&&&&&&&"
};
