/* XPM */
static char *result[] = {
/* columns rows colors chars-per-pixel */
"32 32 12 1 ",
"  c black",
". c #342319",
"X c #36271C",
"o c #171C31",
"O c #503625",
"+ c #6E5649",
"@ c #947B6B",
"# c #677598",
"$ c #8F9AB0",
"% c #C6BBB9",
"& c #B6BEC8",
"* c None",
/* pixels */
"********************************",
"********************************",
"********************************",
"********************************",
"********************************",
"********************************",
"********************************",
"********************************",
"********************************",
"********************************",
"***********      ***************",
"********** %%%%%% **************",
"********* %%%%%%%% *************",
"********* %%%%%%%% *************",
"******** OO%@@@%@@ *************",
"******** O.%OO %  **************",
"*******   $.O. %   *************",
"*****  &&$$#.%%%%% *************",
"**** &&$$## O.+%+%  ************",
"*** &$$##   ..XXXX%% ***********",
"*** $##  ** +@%%%+@+ ***********",
"***    **** @XX++X%%+ **********",
"************ +%%%@@%% **********",
"************ %%%@ @@@ **********",
"************ %%%  @@@ o*********",
"***********o %% o @@ ooo********",
"***********ooooooooooooo********",
"************ooooooooooo*********",
"********************************",
"********************************",
"********************************",
"********************************"
};
