/* XPM */
static char *result[] = {
/* columns rows colors chars-per-pixel */
"32 32 13 1 ",
"  c black",
". c #342319",
"X c #36271C",
"o c #171C31",
"O c #503625",
"+ c #6E5649",
"@ c #947B6B",
"# c #677598",
"$ c #8F9AB0",
"% c #C6BBB9",
"& c #B6BEC8",
"* c white",
"= c None",
/* pixels */
"============*********===========",
"=========***************========",
"=======**======***********======",
"==================**********====",
"====================*********===",
"=====================*********==",
"======================*********=",
"=======================*********",
"========================********",
"========================********",
"=========================*******",
"=========================*******",
"==========      ==========******",
"========= %%%%%% =========******",
"======== %%%%%%%% =========*****",
"======= %%%%%%%%% =========*****",
"======= %%%@@@%@@ =========*****",
"======= %%%%  %  ==========*****",
"======= %%%%  %   =========*****",
"====== @@@%%%%%%% =========*****",
"====== @@@++%+%+% =========*****",
"===== @@%%%+++OO+ =========*****",
"===== @XX++X+@O.==========******",
"====== @%%@@%%..#$   =====******",
"===== @%%% O%%..##&&&    *******",
"====o %%%  ..@ O. $$$&&&&******=",
"===oo %% o @@  .. ##$$$$******==",
"===oooooooooooo  =      *****===",
"====ooooooooooo========*****====",
"======================****======",
"=====================***========",
"====================*==========="
};
