/* XPM */
static char *exit[] = {
/* columns rows colors chars-per-pixel */
"22 22 255 2 ",
"   c #1D1F21",
".  c #1E1F21",
"X  c #202021",
"o  c #232120",
"O  c #242220",
"+  c #252221",
"@  c #272421",
"#  c #2B2521",
"$  c #2B2621",
"%  c #2C2620",
"&  c #252E25",
"*  c #252D26",
"=  c #272D26",
"-  c #262E26",
";  c #292826",
":  c #2B2827",
">  c #2D2A27",
",  c #252628",
"<  c #262728",
"1  c #272728",
"2  c #282728",
"3  c #272828",
"4  c #262E28",
"5  c #272E28",
"6  c #272F28",
"7  c #282828",
"8  c #2B2928",
"9  c #2B2A28",
"0  c #2C2928",
"q  c #2C2A28",
"w  c #2F2B28",
"e  c #292F28",
"r  c #2B2F28",
"t  c #2C2D2F",
"y  c #342724",
"u  c #362D27",
"i  c #3A2B26",
"p  c #3F2E24",
"a  c #3E2E25",
"s  c #322C28",
"d  c #322D28",
"f  c #332D28",
"g  c #342D28",
"h  c #2A3026",
"j  c #273028",
"k  c #283028",
"l  c #283128",
"z  c #293128",
"x  c #2B3228",
"c  c #2D3228",
"v  c #2F362F",
"b  c #343027",
"n  c #383127",
"m  c #373128",
"M  c #393028",
"N  c #383128",
"B  c #3A3128",
"V  c #393228",
"C  c #3B3228",
"Z  c #3B3328",
"A  c #3D3328",
"S  c #3E3328",
"D  c #3E342A",
"F  c #3C362C",
"G  c #34392F",
"H  c #373B2E",
"J  c #3F392E",
"K  c #2F3730",
"L  c #333130",
"P  c #303730",
"I  c #303830",
"U  c #422E24",
"Y  c #423025",
"T  c #453224",
"R  c #463127",
"E  c #443726",
"W  c #443627",
"Q  c #453727",
"!  c #463626",
"~  c #4A3123",
"^  c #4E3626",
"/  c #453826",
"(  c #4B3822",
")  c #4C3922",
"_  c #483925",
"`  c #493A27",
"'  c #4A3A27",
"]  c #4C3A27",
"[  c #40322A",
"{  c #42322A",
"}  c #423628",
"|  c #40352A",
" . c #453729",
".. c #493428",
"X. c #433829",
"o. c #463928",
"O. c #463929",
"+. c #473A28",
"@. c #40392E",
"#. c #41382F",
"$. c #483928",
"%. c #493928",
"&. c #4A3928",
"*. c #4B3A28",
"=. c #4A3A29",
"-. c #4A382A",
";. c #4D3B29",
":. c #4A3C28",
">. c #4F3D28",
",. c #4C3B2D",
"<. c #4F3D2D",
"1. c #4D3E2C",
"2. c #4E3F2D",
"3. c #513E27",
"4. c #553F27",
"5. c #523E28",
"6. c #533F28",
"7. c #503F2F",
"8. c #513F2F",
"9. c #403830",
"0. c #413830",
"q. c #433930",
"w. c #375032",
"e. c #376238",
"r. c #376338",
"t. c #396539",
"y. c #3A6F3D",
"u. c #37753E",
"i. c #38753E",
"p. c #38763E",
"a. c #39763E",
"s. c #39763F",
"d. c #39773F",
"f. c #3A773F",
"g. c #39783F",
"h. c #3B783F",
"j. c #4F402B",
"k. c #574127",
"l. c #574227",
"z. c #5B4426",
"x. c #5B4427",
"c. c #5D4526",
"v. c #5E4627",
"b. c #5F4727",
"n. c #564128",
"m. c #574228",
"M. c #574328",
"N. c #574329",
"B. c #50402C",
"V. c #51402F",
"C. c #52402F",
"Z. c #5A4328",
"A. c #594428",
"S. c #5A4428",
"D. c #5A4529",
"F. c #5B452B",
"G. c #5C4528",
"H. c #5C4529",
"J. c #5E4629",
"K. c #5E462A",
"L. c #5C482C",
"P. c #5F4B2C",
"I. c #534130",
"U. c #544230",
"Y. c #654A27",
"T. c #624928",
"R. c #634A28",
"E. c #654B28",
"W. c #664C29",
"Q. c #604C2F",
"!. c #644E2C",
"~. c #654F2E",
"^. c #684E2A",
"/. c #694F2B",
"(. c #68512E",
"). c #6D522C",
"_. c #6C532F",
"`. c #6F562E",
"'. c #6A5330",
"]. c #705630",
"[. c #715731",
"{. c #715831",
"}. c #735930",
"|. c #745A32",
" X c #755C32",
".X c #705A36",
"XX c #735D36",
"oX c #755D37",
"OX c #765E36",
"+X c #765E37",
"@X c #785E34",
"#X c #785F35",
"$X c #785F36",
"%X c #7A6236",
"&X c #7B6237",
"*X c #7E6437",
"=X c #776039",
"-X c #796138",
";X c #786039",
":X c #796039",
">X c #796239",
",X c #7B6239",
"<X c #7C6338",
"1X c #7E6539",
"2X c #7F6539",
"3X c #7F6638",
"4X c #7E663A",
"5X c #7C673C",
"6X c #7D673D",
"7X c #7D683D",
"8X c #7D683E",
"9X c #3A7840",
"0X c #3B7840",
"qX c #3A7A41",
"wX c #3C7940",
"eX c #3B7D42",
"rX c #826839",
"tX c #846A3B",
"yX c #856B3B",
"uX c #826D41",
"iX c #887646",
"pX c #8B7B4A",
"aX c #8B7C4A",
"sX c #8C7C4A",
"dX c #8C7D4B",
"fX c #489748",
"gX c #489848",
"hX c #4A9D4A",
"jX c #4A9E4A",
"kX c #4AA14B",
"lX c #4AA24B",
"zX c #CDCBCA",
"xX c #DADBDC",
"cX c #DDDDDC",
"vX c #E0E1E1",
"bX c #E1E1E1",
"nX c #E0E1E2",
"mX c #E3E2E2",
"MX c #E3E4E5",
"NX c #E6E5E5",
"BX c #E7E8E9",
"VX c #E8E8E9",
"CX c #F4F2F0",
"ZX c #F6F6F6",
"AX c #F7F7F7",
"SX c #FBF8F6",
"DX c #FBF9F7",
"FX c #F9FAFA",
"GX c #FEFCFA",
"HX c #FCFCFC",
"JX c #FDFDFD",
"KX c #FEFEFE",
"LX c #FEFFFE",
"PX c #FFFFFE",
"IX c white",
/* pixels */
"gXfXgXd.d.H # b F J J O.O.F n : H d.d.gXfXgX",
"fXlXr.R I..X( ).1X'.[.[.[.1X).( OXC.R r.lXfX",
"gXr.^ 1X1X).( j.^.b.b.b.b.^.j.( ).1X%X^ r.gX",
"d...1X'.b.Q.O.O.[ F [ F F [ [ [ Y.b.).rX..d.",
"h.[ OXb.Q.( o # o   . , , 3 e e 8.Q.b.OX[ h.",
"d.,.Q.J.(               = e 3 3 e 8.b.Q.,.d.",
"d.C.1X,.o               = z z z 3 e ,.1XC.u.",
"d.8.rXC.o               = z z z 3 e C.rX8.u.",
"0Xa OXJ.#               = z z z 3 f J.OXa 0X",
"d.[ J.J.#               = j 3 z 3 f b.J.[ 0X",
"u.I.OX,.#               h z z z = f ( OXI.u.",
"d.8.rX,.2 e G O.9.9.O.F F F F e , # ( rX8.u.",
"d...OXJ.f # / R R R R / O.O.O.,.e f J.OX,.d.",
"h.a 4.J.f = ,.C.,.,.b.b.,.,.C.,., f J.4.a 0X",
"u.8.OXR e b F F F F n n b n F F G e R OXC.u.",
"u.8.rXQ.: k.4.b.Y.Y.k.k.Y.Y.b.4.k.: Q.rX8.u.",
"d.,.1X1X).P.j.C.Q.P.,.,.P.Q.C.,.P.).1X1X,.d.",
"d.R %X=X1XuXiXdXdXdXdXdXdXdXdXiXuX1X=X%XR 9X",
"h.U ).=X=XOX1X1X1X1X1X1X1X1X7X1XOX=X+X).U 0X",
"gXt.^ ).%XOXOX1X1X@X@X@X@X1X1XOXOX%X).^ t.gX",
"fXlXt.U R R ^.[.OXJ.a a J.OXOX^.R R U t.lXfX",
"gXfXgX9X0Xy.f b y w.0X0Xw.y b f y.0X0XgXfXgX"
};
