/* XPM */
static char *result[] = {
/* columns rows colors chars-per-pixel */
"22 22 151 2 ",
"   c #007629",
".  c #00762A",
"X  c #00782C",
"o  c #007A2E",
"O  c #007B2F",
"+  c #037B2E",
"@  c #04792D",
"#  c #047A2D",
"$  c #047A2E",
"%  c #047B2F",
"&  c #017C2F",
"*  c #047C2F",
"=  c #067C2F",
"-  c #067D2F",
";  c #047730",
":  c #037A30",
">  c #037B31",
",  c #047931",
"<  c #067931",
"1  c #047A30",
"2  c #017C30",
"3  c #027C30",
"4  c #027D30",
"5  c #027C31",
"6  c #037C31",
"7  c #027D31",
"8  c #037D31",
"9  c #037E31",
"0  c #037E32",
"q  c #047C31",
"w  c #067D32",
"e  c #067D33",
"r  c #047E32",
"t  c #047E33",
"y  c #047F33",
"u  c #057F33",
"i  c #077E33",
"p  c #067F33",
"a  c #077F33",
"s  c #067D34",
"d  c #057F34",
"f  c #067E34",
"g  c #067F34",
"h  c #077F34",
"j  c #077F35",
"k  c #077F36",
"l  c #087D31",
"z  c #087F33",
"x  c #097C34",
"c  c #097C35",
"v  c #087F34",
"b  c #087E35",
"n  c #097E35",
"m  c #0A7F37",
"M  c #296640",
"N  c #BC6924",
"B  c #078032",
"V  c #068033",
"C  c #078033",
"Z  c #068034",
"A  c #078034",
"S  c #068035",
"D  c #078035",
"F  c #068135",
"G  c #078135",
"H  c #068136",
"J  c #098033",
"K  c #088135",
"L  c #088136",
"P  c #0A8136",
"I  c #0B8136",
"U  c #0A8037",
"Y  c #0A8137",
"T  c #088236",
"R  c #098236",
"E  c #098237",
"W  c #098337",
"Q  c #0A8236",
"!  c #0B8336",
"~  c #0A8237",
"^  c #0B8237",
"/  c #0A8337",
"(  c #0B8337",
")  c #0C8237",
"_  c #0C8337",
"`  c #0E8437",
"'  c #0A8338",
"]  c #0B8338",
"[  c #0B8239",
"{  c #0A8339",
"}  c #0E8339",
"|  c #0A8438",
" . c #0B8438",
".. c #0B8439",
"X. c #0D8538",
"o. c #0C8439",
"O. c #0C8539",
"+. c #0D8539",
"@. c #0E8439",
"#. c #0F8439",
"$. c #0E8539",
"%. c #0C843A",
"&. c #0D853A",
"*. c #0F853A",
"=. c #0D863A",
"-. c #0D863B",
";. c #0E863A",
":. c #0F863A",
">. c #0E873A",
",. c #0E863B",
"<. c #0F873B",
"1. c #0F873C",
"2. c #10863B",
"3. c #10873C",
"4. c #11873C",
"5. c #12873E",
"6. c #11893C",
"7. c #10883D",
"8. c #11883D",
"9. c #11893D",
"0. c #11893E",
"q. c #12893E",
"w. c #13893E",
"e. c #12893F",
"r. c #128A3E",
"t. c #128A3F",
"y. c #138A3F",
"u. c #138B3F",
"i. c #148A3F",
"p. c #148B3F",
"a. c #178F3E",
"s. c #198F3E",
"d. c #17913E",
"f. c #17903F",
"g. c #19903E",
"h. c #18903F",
"j. c #1A903F",
"k. c #1A913F",
"l. c #19933F",
"z. c #138A40",
"x. c #148B40",
"c. c #148B41",
"v. c #168D42",
"b. c #198F44",
"n. c #198F45",
"m. c #1A9341",
"M. c #199440",
"N. c #1A9440",
"B. c #509B66",
"V. c #69B57F",
"C. c #E1DDD6",
/* pixels */
"N.) B :.:.i #.@.} ; g.k.c w *.#.i :.$.:.w M.",
"> u Z o.e.' u.{ o.8 [ : u Z o.e.' u.{ o.8 Y ",
"2.2 8.t T <.,.g 0 E ..( 8 8.t T <.,.g 0 ' U ",
"5.R  .L O b.5 6 1.%.T -.W  .L O b.5 6 1.&.Y ",
"s 4 7 x.K 0.9 z.o.8.3 7 3 7 x.K 0.9 z.o.7.e ",
"p ] & 8.Z D V v.y T 8 3 ] & 8.Z D V v.y T z ",
"$ c.,.D E 1.E +.2 q.A . x.,.D E 1.E +.2 0.) ",
"` R n.L r.=.d r 0.7.o Q ~ n.L r.=.d r 0.8.% ",
"6.;.G ,.u.8 7.o 3.1.  -.,.G ,.u.8 7.o 3.1.@ ",
"x y.2 A q.X &.7.F | 1 j t.2 A q.X &.7.F | < ",
"s.f + G D X 7 9.B.V.V.B.C.C.B.B.B.V.V.B.k j.",
"f.k 3 >. .r O./ B.V.V.V.C.N C.B.V.V.M M > d.",
", u S o.t.' p.{ M M V.V.M C.C.B.V.M M B.8 m ",
"4.2 8.t T <.,.g B.M M V.B.M M B.C.C.B.B.' ^ ",
"i.R  .L O b.5 6 1.%.B.B.B.B.B.C.N N C.B.&.X.",
"v 4 7 x.K 0.9 z.o.8.V.V.V.B.B.C.N N C.B.7.z ",
"C ] & 8.Z D V v.y T B.V.V.V.8.Z C.C.v.y T J ",
"$ c.,.D E 1.E +.2 q.M M V.V.D E 1.E +.2 0._ ",
"` R n.L r.=.d r 0.7.B.M M V.L r.=.d r 0.8.* ",
"6.;.G ,.u.8 7.o 3.1.B.B.B.B.,.u.8 7.o 3.1.# ",
"h t.2 A q.X &.7.H | 1 j r.2 A q.X &.7.H | q ",
"l.I = Q Q % a w.l b h.a.n - ! ! % i w.l P m."
};
