/* XPM */
static char *result[] = {
/* columns rows colors chars-per-pixel */
"22 22 151 2 ",
"   c #007629",
".  c #00762A",
"X  c #00782C",
"o  c #007A2E",
"O  c #007B2F",
"+  c #027A2E",
"@  c #037B2E",
"#  c #04792D",
"$  c #047A2D",
"%  c #047A2E",
"&  c #047B2F",
"*  c #017C2F",
"=  c #047C2F",
"-  c #067C2F",
";  c #067D2F",
":  c #047730",
">  c #037A30",
",  c #037B31",
"<  c #047931",
"1  c #067931",
"2  c #047A30",
"3  c #017C30",
"4  c #027C30",
"5  c #027D30",
"6  c #027C31",
"7  c #037C31",
"8  c #027D31",
"9  c #037D31",
"0  c #037E31",
"q  c #037E32",
"w  c #047C31",
"e  c #067D32",
"r  c #067D33",
"t  c #047E32",
"y  c #047E33",
"u  c #047F33",
"i  c #057F33",
"p  c #077E33",
"a  c #067F33",
"s  c #077F33",
"d  c #067D34",
"f  c #057F34",
"g  c #067E34",
"h  c #067F34",
"j  c #077F34",
"k  c #077F35",
"l  c #077F36",
"z  c #087D31",
"x  c #087F33",
"c  c #097C34",
"v  c #097C35",
"b  c #087F34",
"n  c #087E35",
"m  c #097E35",
"M  c #0A7F37",
"N  c #755338",
"B  c #078032",
"V  c #068033",
"C  c #078033",
"Z  c #068034",
"A  c #078034",
"S  c #068035",
"D  c #078035",
"F  c #068135",
"G  c #078135",
"H  c #068136",
"J  c #098033",
"K  c #088135",
"L  c #088136",
"P  c #0A8136",
"I  c #0B8136",
"U  c #0A8037",
"Y  c #0A8137",
"T  c #088236",
"R  c #098236",
"E  c #098237",
"W  c #098337",
"Q  c #0A8236",
"!  c #0B8236",
"~  c #0B8336",
"^  c #0A8237",
"/  c #0B8237",
"(  c #0A8337",
")  c #0B8337",
"_  c #0C8237",
"`  c #0C8337",
"'  c #0E8437",
"]  c #0A8338",
"[  c #0B8338",
"{  c #0B8239",
"}  c #0A8339",
"|  c #0E8339",
" . c #0A8438",
".. c #0B8438",
"X. c #0B8439",
"o. c #0D8538",
"O. c #0C8439",
"+. c #0C8539",
"@. c #0D8539",
"#. c #0E8439",
"$. c #0F8439",
"%. c #0E8539",
"&. c #0C843A",
"*. c #0D853A",
"=. c #0F853A",
"-. c #0D863A",
";. c #0D863B",
":. c #0E863A",
">. c #0F863A",
",. c #0E873A",
"<. c #0E863B",
"1. c #0F873B",
"2. c #0F873C",
"3. c #10863B",
"4. c #10873C",
"5. c #11873C",
"6. c #12873E",
"7. c #11893C",
"8. c #10883D",
"9. c #11883D",
"0. c #11893D",
"q. c #11893E",
"w. c #12893E",
"e. c #13893E",
"r. c #12893F",
"t. c #128A3E",
"y. c #128A3F",
"u. c #138A3F",
"i. c #138B3F",
"p. c #148A3F",
"a. c #148B3F",
"s. c #178F3E",
"d. c #198F3E",
"f. c #17913E",
"g. c #17903F",
"h. c #17973F",
"j. c #19903E",
"k. c #18903F",
"l. c #1A903F",
"z. c #1A913F",
"x. c #19933F",
"c. c #138A40",
"v. c #148B40",
"b. c #148B41",
"n. c #168D42",
"m. c #198F44",
"M. c #198F45",
"N. c #1A9341",
"B. c #199440",
"V. c #1A9440",
"C. c #189840",
/* pixels */
"V._ B >.>.p $.#.| : j.z.v e =.$.p >.%.>.e B.",
", i Z O.r.] i.} O.9 { > i Z O.r.] i.} O.9 Y ",
"3.3 9.y T 1.<.h q E X.) 9 9.y T 1.<.h q ] U ",
"6.R ..L O m.6 7 2.&.T ;.W ..L O m.6 7 2.*.Y ",
"d 5 8 v.K q.0 c.O.9.4 8 4 8 v.K q.0 c.O.8.r ",
"a [ * 9.Z D V n.u T 9 4 [ * 9.Z D V n.u T x ",
"% b.<.D E 2.E @.3 w.A . v.<.D E 2.E @.3 q._ ",
"' R M.L t.-.f t q.8.o Q ^ M.L t.-.f t q.9.& ",
"7.:.G <.i.9 N N N 2.  ;.<.G <.i.9 8.o 4.2.# ",
"c u.3 A w.N N N N N 2 k y.3 A w.N N 8.F  .1 ",
"d.g @ G D N N N N N C.h.g @ G D N N 0.+ l l.",
"g.l 4 ,...t N N N , C.C.l 4 ,...t +.( ! , f.",
"< i S O.y.] a.} @.9 N N N N N N ] a.} @.9 M ",
"5.3 9.y T 1.<.h N N N N N N N N N <.h q ] / ",
"p.R ..L O m.6 N N N N N N N N N N 6 7 2.*.o.",
"b 5 8 v.K q.0 N N N N N N N N N N 0 c.O.8.x ",
"C [ * 9.Z D V N N N N N N N N N N V n.u T J ",
"% b.<.D E 2.E N N N N N N N N N 2.E @.3 q.` ",
"' R M.L t.-.f t N N N N N N N t.-.f t q.9.= ",
"7.:.G <.i.9 8.o 4.2.  ;.<.G <.i.9 8.o 4.2.$ ",
"j y.3 A w.X *.8.H  .2 k t.3 A w.X *.8.H  .w ",
"x.I - Q Q & s e.z n k.s.m ; ~ ~ & p e.z P N."
};
