/* XPM */
static char *result[] = {
/* columns rows colors chars-per-pixel */
"22 22 150 2 ",
"   c #007629",
".  c #00762A",
"X  c #00782C",
"o  c #007A2E",
"O  c #007B2F",
"+  c #027A2E",
"@  c #037B2E",
"#  c #04792D",
"$  c #047A2D",
"%  c #047A2E",
"&  c #047B2F",
"*  c #017C2F",
"=  c #047C2F",
"-  c #067C2F",
";  c #067D2F",
":  c #047730",
">  c #037A30",
",  c #037B31",
"<  c #047931",
"1  c #067931",
"2  c #047A30",
"3  c #017C30",
"4  c #027C30",
"5  c #027D30",
"6  c #027C31",
"7  c #037C31",
"8  c #027D31",
"9  c #037D31",
"0  c #037E31",
"q  c #037E32",
"w  c #047C31",
"e  c #067D32",
"r  c #067D33",
"t  c #047E32",
"y  c #047E33",
"u  c #047F33",
"i  c #057F33",
"p  c #077E33",
"a  c #067F33",
"s  c #077F33",
"d  c #067D34",
"f  c #057F34",
"g  c #067E34",
"h  c #067F34",
"j  c #077F34",
"k  c #077F35",
"l  c #077F36",
"z  c #087D31",
"x  c #087F33",
"c  c #097C34",
"v  c #097C35",
"b  c #087F34",
"n  c #087E35",
"m  c #097E35",
"M  c #0A7F37",
"N  c #078032",
"B  c #068033",
"V  c #078033",
"C  c #068034",
"Z  c #078034",
"A  c #068035",
"S  c #078035",
"D  c #068135",
"F  c #078135",
"G  c #068136",
"H  c #098033",
"J  c #088135",
"K  c #088136",
"L  c #0A8136",
"P  c #0B8136",
"I  c #0A8037",
"U  c #0A8137",
"Y  c #088236",
"T  c #098236",
"R  c #098237",
"E  c #098337",
"W  c #0A8236",
"Q  c #0B8236",
"!  c #0B8336",
"~  c #0A8237",
"^  c #0B8237",
"/  c #0A8337",
"(  c #0B8337",
")  c #0C8237",
"_  c #0C8337",
"`  c #0E8437",
"'  c #0A8338",
"]  c #0B8338",
"[  c #0B8239",
"{  c #0A8339",
"}  c #0E8339",
"|  c #0A8438",
" . c #0B8438",
".. c #0B8439",
"X. c #0D8538",
"o. c #0C8439",
"O. c #0C8539",
"+. c #0D8539",
"@. c #0E8439",
"#. c #0F8439",
"$. c #0E8539",
"%. c #0C843A",
"&. c #0D853A",
"*. c #0F853A",
"=. c #0D863A",
"-. c #0D863B",
";. c #0E863A",
":. c #0F863A",
">. c #0E873A",
",. c #0E863B",
"<. c #0F873B",
"1. c #0F873C",
"2. c #10863B",
"3. c #10873C",
"4. c #11873C",
"5. c #12873E",
"6. c #11893C",
"7. c #10883D",
"8. c #11883D",
"9. c #11893D",
"0. c #11893E",
"q. c #12893E",
"w. c #13893E",
"e. c #12893F",
"r. c #128A3E",
"t. c #128A3F",
"y. c #138A3F",
"u. c #138B3F",
"i. c #148A3F",
"p. c #148B3F",
"a. c #178F3E",
"s. c #198F3E",
"d. c #17913E",
"f. c #17903F",
"g. c #17973F",
"h. c #19903E",
"j. c #18903F",
"k. c #1A903F",
"l. c #1A913F",
"z. c #19933F",
"x. c #138A40",
"c. c #148B40",
"v. c #148B41",
"b. c #168D42",
"n. c #198F44",
"m. c #198F45",
"M. c #1A9341",
"N. c #199440",
"B. c #1A9440",
"V. c #189840",
/* pixels */
"B.) N :.:.p #.@.} : h.l.v e *.#.p :.$.:.e N.",
", i C o.e.' u.{ o.9 [ > i C o.e.' u.{ o.9 U ",
"2.3 8.y Y <.,.h q R ..( 9 8.y Y <.,.h q ' I ",
"5.T  .K O n.6 7 1.%.Y -.E  .K O n.6 7 1.&.U ",
"d 5 8 c.J 0.0 x.o.8.4 8 4 8 c.J 0.0 x.o.7.r ",
"a ] * 8.C S B b.u Y 9 4 ] * 8.C S B b.u Y x ",
"% v.,.S R 1.R +.3 q.Z . c.,.S R 1.R +.3 0.) ",
"` T m.K r.=.f t 0.7.o W ~ m.K r.=.f t 0.8.& ",
"6.;.F ,.u.9 7.o 3.1.  -.,.F ,.u.9 7.o 3.1.# ",
"c y.3 Z q.X &.7.D | 2 k t.3 Z q.X &.7.D | 1 ",
"s.g @ F S X 8 9.+ l V.g.g @ F S X 8 9.+ l k.",
"f.l 4 >. .t O./ Q , V.V.l 4 >. .t O./ Q , d.",
"< i A o.t.' p.{ +.9 [ > i A o.t.' p.{ +.9 M ",
"4.3 8.y Y <.,.h q R ..( 9 8.y Y <.,.h q ' ^ ",
"i.T  .K O n.6 7 1.%.Y -.E  .K O n.6 7 1.&.X.",
"b 5 8 c.J 0.0 x.o.8.4 8 4 8 c.J 0.0 x.o.7.x ",
"V ] * 8.C S B b.u Y 9 4 ] * 8.C S B b.u Y H ",
"% v.,.S R 1.R +.3 q.Z . c.,.S R 1.R +.3 0._ ",
"` T m.K r.=.f t 0.7.o W ~ m.K r.=.f t 0.8.= ",
"6.;.F ,.u.9 7.o 3.1.  -.,.F ,.u.9 7.o 3.1.$ ",
"j t.3 Z q.X &.7.G | 2 k r.3 Z q.X &.7.G | w ",
"z.P - W W & s w.z n j.a.m ; ! ! & p w.z L M."
};
