/* XPM */
static char *result[] = {
/* columns rows colors chars-per-pixel */
"22 22 91 1 ",
"  c #103D30",
". c #1A3C3A",
"X c #212639",
"o c #212938",
"O c #20333B",
"+ c #0C482F",
"@ c #144635",
"# c #174C38",
"$ c #1D4A3C",
"% c #0E5533",
"& c #0D5D34",
"* c #115736",
"= c #1A523B",
"- c #155D3A",
"; c #21473C",
": c #254A3C",
"> c #00762A",
", c #027A2E",
"< c #0D6736",
"1 c #086F31",
"2 c #116939",
"3 c #047731",
"4 c #0C7536",
"5 c #047D32",
"6 c #097D34",
"7 c #27673D",
"8 c #252C41",
"9 c #293244",
"0 c #2B3349",
"q c #31384B",
"w c #343E55",
"e c #1D5941",
"r c #244743",
"t c #284240",
"y c #234B43",
"u c #265F43",
"i c #364655",
"p c #304850",
"a c #374059",
"s c #2F5558",
"d c #336648",
"f c #3F4761",
"g c #424C69",
"h c #48516B",
"j c #4B5676",
"k c #4C5A74",
"l c #4E577A",
"z c #515C77",
"x c #436C61",
"c c #4C746A",
"v c #527D77",
"b c #078034",
"n c #098236",
"m c #0D853A",
"M c #12853D",
"N c #1A833E",
"B c #12893E",
"V c #198F3E",
"C c #19913F",
"Z c #148B41",
"A c #198F45",
"S c #1A9440",
"D c #519E69",
"F c #566282",
"G c #586484",
"H c #566489",
"J c #5E668F",
"K c #5D6A8B",
"L c #656E85",
"P c #636F89",
"I c #616F92",
"U c #657494",
"Y c #6A7796",
"T c #6C7A94",
"R c #657398",
"E c #6C7A9B",
"W c #717D97",
"Q c #5E9081",
"! c #79849C",
"~ c #7784A1",
"^ c #7D89A6",
"/ c #828DA9",
"( c #829AA1",
") c #8692AC",
"_ c #8995AE",
"` c #8F9BB4",
"' c #929CB3",
"] c #939FBA",
"[ c #96A1B7",
"{ c #9AA6BC",
"} c #9BA7C0",
/* pixels */
"SnbMm5mmm,AC66mM5mmm5C",
"55bmBmZmm3n555nBmZmm5n",
"m,M5bmm55nmm5=..=M55mn",
"Mmmb5A55mmbm#zUKaO*Mmn",
"5,5Z5B5ZmB,%z''_EKw-M5",
"bm5Zb5bA5n3;T_'')Ij844",
",VmbnBbm5M T]I~'_ILze6",
"mbS6Zm55ByPzW/^'YT}Y01",
"BmbmB5m5r!{TH_[Yfhzf04",
"5Z5bB,mBq{)R^``)GaGfX1",
"C5,bb,5B9YTkW'`[!jEioZ",
"An,mm5mb&tcxv^(!Jxd:.N",
",bbmZmZmm&s$pQDlFi7;@6",
"M,B5bmm55nn&.udQga@+<n",
"Bbnb5A55Znb64%==y@+2mn",
"n55Zbm5ZnZ5553Z6M46mB6",
"bn,BbbbZ5b55m,Z5bbZ5bb",
",Zmnnmmm5Bb>BmbbZbm5Zm",
"mmSnBmb5BB5nmSbZm55ZB,",
"Mm5mB5B,Mm>mmbmZ5m5mm,",
"nB5bB,mBbm,5V,bB,mmbm5",
"Cn,nn,5B65CV6,mn,bB6nC"
};
