/* XPM */
static char *result[] = {
/* columns rows colors chars-per-pixel */
"22 22 10 1 ",
"  c black",
". c #171C31",
"X c #402717",
"o c #573A23",
"O c #9A5C42",
"+ c #AC7B5D",
"@ c #1D438A",
"# c #2C65B5",
"$ c #C1AC8F",
"% c None",
/* pixels */
"%%%%%%%%%%%%%%%%%%%%%%",
"%%%%%%%%%%%%%%%%%%%%%%",
"%%%%%%%%%%%%%%%%%%%%%%",
"%%%%%%%%%%%%%%%%%%%%%%",
"%%%%%%%%%%%%%%%%%%%%%%",
"%%%%%%%%%%%%%%%%%%%%%%",
"%%%%%%%%%%%%%%%%%%%%%%",
"%%%%%%%%%    %  %%%%%%",
"%%%%%%%%% ooX o   %%%%",
"%%%%%%%%%  ooXoXoo %%%",
"%%%%%%%% Xooooooooo %%",
"%%%%%%% Xooooooooooo %",
"%%%%%%% XooXoooXXooo %",
"%%%%%%% XXXXoooX++XoX ",
"%%%%    XoXXooX++++XX ",
"%%% #oooXoo+Xo+ $$  X ",
"%% X@Xo  XoO+X+$$$+  %",
"%. X@@ $$ XOO+++++  .%",
"%..... $$ ...........%",
"%%..................%%",
"%%%%%%%%%%%%%%%%%%%%%%",
"%%%%%%%%%%%%%%%%%%%%%%"
};
