/* XPM */
static char *result[] = {
/* columns rows colors chars-per-pixel */
"22 22 11 1 ",
"  c black",
". c #21110D",
"X c #171C31",
"o c #402717",
"O c #573A23",
"+ c #AC7B5D",
"@ c #1D438A",
"# c #2C65B5",
"$ c #787E97",
"% c #C1AC8F",
"& c None",
/* pixels */
"&&&&&&&&&&&&&&&&&&&&&&",
"&&&&&&&&&&&&&&&&&&&&&&",
"&&&&&&&&&&&&&&&&&&&&&&",
"&&&&&&&&&&&&&&&&&&&&&&",
"&&&&&&&    &  &&&&&&&&",
"&&&&&&& OOo O   &&&&&&",
"&&&&&&&  OOoOoOO &&&&&",
"&&&&&& oOOOOOOOOO &&&&",
"&&&&& oOOOOOOOOOOO &&&",
"&&&&& oOOoOOOooOOO &&&",
"&&&&& ooooOOOo++oOo &&",
"&&&&& oOooOOo++++oo &&",
"&&&&& oOO+oO+%%%% o &&",
"&&&&& ooO++o%.%%.  &&&",
"&&&&&  oo+++%%%%+ &&&&",
"&&&& oOOooo$$$oo  &&&&",
"&&&& O##%%$$$$%+o &&&&",
"&&&X ##@%%$$$+++o X&&&",
"&&&XXXXXXXXXXXXXXXX&&&",
"&&&&XXXXXXXXXXXXXX&&&&",
"&&&&&&&&&&&&&&&&&&&&&&",
"&&&&&&&&&&&&&&&&&&&&&&"
};
