/* XPM */
static char *result[] = {
/* columns rows colors chars-per-pixel */
"22 22 7 1 ",
"  c black",
". c #706060",
"X c #988888",
"o c #C0B0B0",
"O c #E8D8D8",
"+ c #F8F8F8",
"@ c None",
/* pixels */
"@@@@@@@@@@@@@@@@@@@@@@",
"@@@@@@@@@@@@@@@@@@@@@@",
"@@@@@@@@@@@@@@@@@@@@@@",
"@@@@@@@@@@@@@@@@@@@@@@",
"@@@@@@@@@   @   @@@@@@",
"@@@@@@@@ @O@ @+@ @@@@@",
"@@@@@@@@.OO++O  @ @@@@",
"@@@@@@@@.++OOO  O @@@@",
"@@@@@@@@ @OOOOOO@ @@@@",
"@@@@@@@@@ oOO+++ @@@@@",
"@@@@@@@@@@+++OOO@ @@@@",
"@@@@@@@@ @+XoOOOO @@@@",
"@@@@@@@ @+X. @OO@ @@@@",
"@@@@@@ @+X. @ .. @@@@@",
"@@@@@ @+X+ @@@@@@@@@@@",
"@@@@ @+X X@ @@@@@@@@@@",
"@@@@ @X+   @@@@@@@@@@@",
"@@@@@  @@ @@@@@@@@@@@@",
"@@@@@@@  @@@@@@@@@@@@@",
"@@@@@@@@@@@@@@@@@@@@@@",
"@@@@@@@@@@@@@@@@@@@@@@",
"@@@@@@@@@@@@@@@@@@@@@@"
};
