/* XPM */
static char *dth1[] = {
/* columns rows colors chars-per-pixel */
"32 32 11 1 ",
"  c None",
". c black",
"X c #36271C",
"o c #171C31",
"O c #503625",
"+ c #6E5649",
"@ c #947B6B",
"# c #677598",
"$ c #8F9AB0",
"% c #C6BBB9",
"& c #B6BEC8",
/* pixels */
"                                ",
"                                ",
"                                ",
"                                ",
"                                ",
"                                ",
"                                ",
"                                ",
"                                ",
"             ......             ",
"            .%%%%%%.       .... ",
"           .%%%%%%%%.    ..&&&. ",
"           .%%%%%%%%%. ..&&$&&. ",
"           .@@%@@@%%%..&&$###&. ",
"            ..%..%%OO$&$####..  ",
"           ...%..%%XO$####..    ",
"           .%%%%%%@+%%##..      ",
"           .%+%+%+%%%%O.        ",
"           .+++++X%%.XO.        ",
"            ..@@@XX. ..         ",
"           .%+%%%@+.            ",
"          .++X++XX@.            ",
"          .%%@%%%@+.            ",
"          .@@@.%%%@.            ",
"         o.@@@..%%%.            ",
"        ooo.@@.o.%%.o           ",
"        ooooooooooooo           ",
"         ooooooooooo            ",
"                                ",
"                                ",
"                                ",
"                                "
};
