/* XPM */
static char *dth2[] = {
/* columns rows colors chars-per-pixel */
"32 32 12 1 ",
"  c None",
". c black",
"X c #342319",
"o c #36271C",
"O c #171C31",
"+ c #503625",
"@ c #6E5649",
"# c #947B6B",
"$ c #677598",
"% c #8F9AB0",
"& c #C6BBB9",
"* c #B6BEC8",
/* pixels */
"                                ",
"                                ",
"                                ",
"                                ",
"                                ",
"                                ",
"                                ",
"                                ",
"                                ",
"                                ",
"               ......           ",
"              .&&&&&&.          ",
"             .&&&&&&&&.         ",
"             .&&&&&&&&.         ",
"             .##&###&++.        ",
"              ..&.++&o+.        ",
"             ...&.o+o%...       ",
"             .&&&&&o$%%**..     ",
"            ..&@&@o+.$$%%**.    ",
"           .&&oooooo...$$%%*.   ",
"           .@#@&&&#@.  ..$$%.   ",
"          .@&&o@@oo#.    ....   ",
"          .&&##&&&@.            ",
"          .###.#&&&.            ",
"         O.###..&&&.            ",
"        OOO.##.O.&&.O           ",
"        OOOOOOOOOOOOO           ",
"         OOOOOOOOOOO            ",
"                                ",
"                                ",
"                                ",
"                                "
};
