/* XPM */
static char *rskull3[] = {
/* columns rows colors chars-per-pixel */
"22 22 166 2 ",
"   c None",
".  c black",
"X  c #000001",
"o  c #030000",
"O  c #020201",
"+  c #020303",
"@  c #060300",
"#  c #000004",
"$  c #000005",
"%  c #000007",
"&  c #040404",
"*  c #060504",
"=  c #090707",
"-  c #080807",
";  c #0D0A05",
":  c #0C0806",
">  c #00010D",
",  c #07080C",
"<  c #0E0C0B",
"1  c #0B0D0E",
"2  c #0F0E0E",
"3  c gray6",
"4  c #100D0C",
"5  c #110E0C",
"6  c #100F0D",
"7  c #130F0D",
"8  c #100F0F",
"9  c #14100E",
"0  c #15110F",
"q  c #070810",
"w  c #080910",
"e  c #0F0F17",
"r  c #080D1A",
"t  c #0F1010",
"y  c #141313",
"u  c #151414",
"i  c #161414",
"p  c #141516",
"a  c #181718",
"s  c #241C15",
"d  c #211C1A",
"f  c #35261B",
"g  c #37281C",
"h  c #37281D",
"j  c #1B1E24",
"k  c #15192E",
"l  c #161B2E",
"z  c #151A30",
"x  c #171C31",
"c  c #2E2620",
"v  c #242628",
"b  c #282A2B",
"n  c #2E2D2E",
"m  c #3A3027",
"M  c #3E3127",
"N  c #393635",
"B  c #493121",
"V  c #4A3B2F",
"C  c #4B3B30",
"Z  c #4A3E33",
"A  c #5E412E",
"S  c #504032",
"D  c #5B463A",
"F  c #604637",
"G  c #624839",
"H  c #384157",
"J  c #4F4B4B",
"K  c #524D4B",
"L  c #514D4C",
"P  c #5B5655",
"I  c #684F41",
"U  c #6E5445",
"Y  c #6E5649",
"T  c #70594C",
"R  c #735B4E",
"E  c #685956",
"W  c #745D50",
"Q  c #7A6455",
"!  c #71605C",
"~  c #7B655A",
"^  c #7D6758",
"/  c #7C655A",
"(  c #7C665A",
")  c #444D67",
"_  c #4C5771",
"`  c #686261",
"'  c #6A6463",
"]  c #6F6968",
"[  c #736D6C",
"{  c #7B7473",
"}  c #7C7777",
"|  c #836B5C",
" . c #89705F",
".. c #8C7363",
"X. c #957865",
"o. c #957967",
"O. c #947B6B",
"+. c #947C6D",
"@. c #967C6C",
"#. c #977E6E",
"$. c #987F6F",
"%. c #827D7D",
"&. c #9A8170",
"*. c #9B8374",
"=. c #A38673",
"-. c #A18574",
";. c #A88C7A",
":. c #7C8697",
">. c #76839F",
",. c #9E8D87",
"<. c #8F949A",
"1. c #AE9585",
"2. c #A1908A",
"3. c #AA988E",
"4. c #AA9A95",
"5. c #AD9E99",
"6. c #BAA296",
"7. c #B4A39B",
"8. c #B5A39D",
"9. c #B5A49D",
"0. c #B6A49D",
"q. c #8E96A6",
"w. c #979DA6",
"e. c #98A2B7",
"r. c #98A3B8",
"t. c #B2A7A3",
"y. c #B6AAA6",
"u. c #BAABA7",
"i. c #BFB1AD",
"p. c #C2ACA0",
"a. c #C4ADA1",
"s. c #C3B3AE",
"d. c #C1B4B1",
"f. c #C2B6B2",
"g. c #C2B6B3",
"h. c #C3B6B3",
"j. c #C4B9B7",
"k. c #CABBB7",
"l. c #C5BAB8",
"z. c #C6BAB8",
"x. c #C6BBB9",
"c. c #C6BCBA",
"v. c #CABEBB",
"b. c #C8BDBC",
"n. c #C8BEBC",
"m. c #C8BEBD",
"M. c #CDC0BD",
"N. c #CFC1BE",
"B. c #909EC0",
"V. c #97A5C6",
"C. c #CCC3C2",
"Z. c #CDC3C2",
"A. c #CFC4C1",
"S. c #CFC6C5",
"D. c #D4CBC9",
"F. c #DCCFCD",
"G. c #DCD1CE",
"H. c #DED2CF",
"J. c #C9D1DC",
"K. c #CBD3DE",
"L. c #DFD3D1",
"P. c #E1D6D5",
"I. c #E4D7D5",
"U. c #E5D9D8",
"Y. c #E9DDDB",
"T. c #ECE0DE",
/* pixels */
"                                            ",
"                                            ",
"                & & & & & &                 ",
"              & ] ` ` ` ` ` &               ",
"              P I.F.F.F.F.H.L               ",
"            a Y.x.x.b.b.b.x.L.N             ",
"    & p t   p N.d.x.d.d.d.x.x.H.5           ",
"    v J.w.& 5 -.*.x.O.O.O.x.x.A.1           ",
"    n J.e.<.& 0 d j.5 0 i.x.x.A.1           ",
"    j V.r.q.& & & j.& & b.x.x.D.1           ",
"    , H B.:.& } %.x.} [ A.A.A.p.1           ",
"      & _ >.: T.9.A.9.I.2.,.9.C &           ",
"        & ) s 9.G 5.F 4.F U o.n N           ",
"          & A D ( I ( W ( $.| k.I.p         ",
"          : B 1 b.Y b.x.x.O.h ..N.p         ",
"            & = T f T T M h t.d.1.5         ",
"              5 u.( y.s. .Q A.U.c           ",
"              : p.*.3.J M ;.6.L r           ",
"            k e S -.o.& , C V & x           ",
"          x     & ! E e   & & q k x         ",
"            x x         x       x           ",
"            x x x x x x x x x x x           "
};
