/* XPM */
static char *rskull1[] = {
/* columns rows colors chars-per-pixel */
"22 22 165 2 ",
"   c None",
".  c black",
"X  c #000203",
"o  c #070500",
"O  c #040403",
"+  c #060403",
"@  c #050504",
"#  c #060505",
"$  c #070605",
"%  c #060606",
"&  c #080606",
"*  c #080706",
"=  c #0A0806",
"-  c #0A0807",
";  c #00010C",
":  c #00020E",
">  c #0A0909",
",  c #0C0B0B",
"<  c #0F0E0B",
"1  c #0E0D0C",
"2  c #0F0E0E",
"3  c #100C0A",
"4  c #120F0D",
"5  c #100F0E",
"6  c #040918",
"7  c #0B0D18",
"8  c #111010",
"9  c #131313",
"0  c #161515",
"q  c #1D1710",
"w  c #181717",
"e  c #1A1817",
"r  c #111318",
"t  c #121319",
"y  c #11121E",
"u  c #1A1B1D",
"i  c #1E1D1D",
"p  c #1C1D1E",
"a  c #211813",
"s  c #201D1B",
"d  c #342418",
"f  c #121728",
"g  c #14192C",
"h  c #171C31",
"j  c #171C32",
"k  c #26282A",
"l  c #2D2A2A",
"z  c #332A22",
"x  c #362C24",
"c  c #3E2F23",
"v  c #3F2F27",
"b  c #3F3025",
"n  c #2D2F31",
"m  c #272D3C",
"M  c #292E3D",
"N  c #574236",
"B  c #5E4334",
"V  c #5E4435",
"C  c #5F4436",
"Z  c #51453D",
"A  c #5A4539",
"S  c #604B3C",
"D  c #694F41",
"F  c #6D584B",
"G  c #725D4E",
"H  c #635D5A",
"J  c #715D50",
"K  c #735C50",
"L  c #7A6051",
"P  c #796455",
"I  c #706B6B",
"U  c #797271",
"Y  c #7B7574",
"T  c #816C63",
"R  c #8A7364",
"E  c #8F7769",
"W  c #89756C",
"Q  c #8A766C",
"!  c #967C6C",
"~  c #947D6F",
"^  c #977F6F",
"/  c #9A7E6B",
"(  c #8F7B70",
")  c #907B71",
"_  c #917E75",
"`  c #988071",
"'  c #9A8070",
"]  c #9F8677",
"[  c #938178",
"{  c #A08573",
"}  c #A28878",
"|  c #A48B7B",
" . c #AF927E",
".. c #7F8A9D",
"X. c #7684A6",
"o. c #858085",
"O. c #918987",
"+. c #9B8982",
"@. c #9E8C84",
"#. c #938B8A",
"$. c #848D9F",
"%. c #958F94",
"&. c #A28C82",
"*. c #A79185",
"=. c #B59C8C",
"-. c #A39895",
";. c #A39A98",
":. c #B09F96",
">. c #A9A09E",
",. c #AAA19F",
"<. c #B7A399",
"1. c #8997BC",
"2. c #ACA2A0",
"3. c #B4A6A2",
"4. c #BEACA3",
"5. c #BEACA5",
"6. c #B3AAAA",
"7. c #B5AAA9",
"8. c #B4ABAB",
"9. c #BFB0AC",
"0. c #ABB3BF",
"q. c #C7B4AB",
"w. c #C4B5AF",
"e. c #C1B5B2",
"r. c #C0B5B3",
"t. c #C1B6B4",
"y. c #C4B9B5",
"u. c #C4B9B6",
"i. c #C5BAB7",
"p. c #CAB8B0",
"a. c #C3B9B8",
"s. c #C5BAB8",
"d. c #C5BBB9",
"f. c #C6BBB9",
"g. c #C7BCBA",
"h. c #C8BDBB",
"j. c #C8BEBC",
"k. c #C9BFBD",
"l. c #C9BFBE",
"z. c #CAC0C0",
"x. c #CBC1C1",
"c. c #CCC2C1",
"v. c #CDC3C3",
"b. c #CEC4C3",
"n. c #D0C5C1",
"m. c #D0C5C3",
"M. c #D0C6C5",
"N. c #D2C6C4",
"B. c #D3C7C5",
"V. c #D3C8C6",
"C. c #D4C8C6",
"Z. c #D5C8C6",
"A. c #D4C9C6",
"S. c #D5C9C7",
"D. c #D4C9C8",
"F. c #D4CBCB",
"G. c #D9CFCE",
"H. c #DDD0CE",
"J. c #C2CBD8",
"K. c #DFD4D2",
"L. c #E2D5D1",
"P. c #E7DBDA",
"I. c #E8DBD9",
"U. c #EDE1DE",
"Y. c #D4DDE9",
/* pixels */
"                % % % % % %                 ",
"              % >.;.-.-.;.>.%               ",
"            1 O.A.N.N.N.N.A.#.%             ",
"            8 P.z.f.z.z.z.f.G.U 1           ",
"            1 q.4.f.4.4.:.y.f.I.q           ",
"      % n k & G J f.F F ` y.f.N.8           ",
"      u Y.0.% % % f.% % f.f.f.N.8           ",
"      u J...% % % f.% % r.f.f.A.8           ",
"      8 1.$.% 6.6.f.6.2.z.z.z.=.5           ",
"        M X.- K.( z.( G.Q T *.a %           ",
"        % m - &.V [ V Q V L / I U 1         ",
"          % % c +.D +._ +.} S <.U.u         ",
"            % % q.A 3.3.-.L Z ~ p.e         ",
"            % % V c J J b d j.F.Q 5         ",
"              % % ` f.j.j.~ r.N.8           ",
"              & R ~ } A.j.y.` s             ",
"              %  .{ q l r.j.q.&             ",
"              y z z 6 % A.j.F.5             ",
"            h   ; ;   7 H N.L.1 f           ",
"          h         h   % o.%.y g h         ",
"            h h h h h h         h           ",
"            h h h h h h h h h h h           "
};
