/* XPM */
static char *rskull5[] = {
/* columns rows colors chars-per-pixel */
"22 22 198 2 ",
"   c None",
".  c black",
"X  c #030202",
"o  c #000006",
"O  c #030406",
"+  c #060506",
"@  c #0A0100",
"#  c #080605",
"$  c #0F0A07",
"%  c #00010D",
"&  c gray3",
"*  c #0A0909",
"=  c #090B0B",
"-  c #0B0A0A",
";  c #0E0C09",
":  c #0D0C0A",
">  c #0F0F0E",
",  c #0E0F0F",
"<  c #11100E",
"1  c #11100F",
"2  c #13100E",
"3  c #0B0D17",
"4  c #0F1011",
"5  c #131210",
"6  c #141313",
"7  c #181512",
"8  c #191512",
"9  c #191612",
"0  c #191717",
"q  c #151618",
"w  c #17171D",
"e  c #1C1A19",
"r  c #1C1D1E",
"t  c #2B1709",
"y  c #301C0F",
"u  c #221710",
"i  c #251811",
"p  c #251A13",
"a  c #21201F",
"s  c #322217",
"d  c #35261B",
"f  c #36271C",
"g  c #3B271B",
"h  c #38291E",
"j  c #0F1325",
"k  c #12172A",
"l  c #161B30",
"z  c #171C31",
"x  c #181D32",
"c  c #1F2430",
"v  c #202122",
"b  c #272421",
"n  c #2E2C2B",
"m  c #342A22",
"M  c #352B22",
"N  c #332A24",
"B  c #2F3133",
"V  c #402614",
"C  c #56341C",
"Z  c #413C3B",
"A  c #46413E",
"S  c #5D4334",
"D  c #5F4435",
"F  c #614738",
"G  c #2A3040",
"H  c #393C40",
"J  c #373F51",
"K  c #3D414E",
"L  c #424448",
"P  c #4F4B4B",
"I  c #4F5357",
"U  c #654E41",
"Y  c #684E40",
"T  c #675044",
"R  c #6C5447",
"E  c #70574A",
"W  c #725848",
"Q  c #71594B",
"!  c #755B4C",
"~  c #795E4F",
"^  c #655754",
"/  c #615B58",
"(  c #786253",
")  c #6B6564",
"_  c #726765",
"`  c #7F7876",
"'  c #806857",
"]  c #836B5C",
"[  c #856E5E",
"{  c #876F5E",
"}  c #876E5F",
"|  c #816C61",
" . c #8A7263",
".. c #8C7262",
"X. c #8A7366",
"o. c #8E7565",
"O. c #88746B",
"+. c #8B786F",
"@. c #937969",
"#. c #957A68",
"$. c #8E7970",
"%. c #8F7D75",
"&. c #817A78",
"*. c #807A7A",
"=. c #857D7C",
"-. c #857E7D",
";. c #977F70",
":. c #917F76",
">. c #9C8372",
",. c #9F8573",
"<. c #9F8778",
"1. c #9E8779",
"2. c #A78A79",
"3. c #A78B79",
"4. c #A38B7E",
"5. c #AF927E",
"6. c #837E83",
"7. c #838A8E",
"8. c #8E888D",
"9. c #908887",
"0. c #998880",
"q. c #928A88",
"w. c #9F8E88",
"e. c #8F959C",
"r. c #969095",
"t. c #999292",
"y. c #9C9493",
"u. c #9F9898",
"i. c #A38F87",
"p. c #A49188",
"a. c #A49089",
"s. c #A2938E",
"d. c #A9968C",
"f. c #B8A69E",
"g. c #979EAE",
"h. c #8190B3",
"j. c #8897BA",
"k. c #939CB2",
"l. c #9AA0A8",
"z. c #99A1AC",
"x. c #96A1B4",
"c. c #9FA9BB",
"v. c #9EA9BF",
"b. c #B6A9A6",
"n. c #B9ABA5",
"m. c #B7ACA9",
"M. c #B8ACAA",
"N. c #BFB0AA",
"B. c #BBB1AE",
"V. c #BCB0AD",
"C. c #A0AABE",
"Z. c #BFB3B1",
"A. c #C0B1AB",
"S. c #C1B2AD",
"D. c #C9B5AC",
"F. c #C0B4B1",
"G. c #C2B7B5",
"H. c #C5BAB7",
"J. c #C9B9B4",
"K. c #C4BAB8",
"L. c #C5BAB8",
"P. c #C6BBB9",
"I. c #C7BDBC",
"U. c #C8BDBB",
"Y. c #CFBFB9",
"T. c #C9BEBC",
"R. c #CABFBD",
"E. c #C9BFBE",
"W. c #CABFBE",
"Q. c #CBC0BE",
"!. c #CAC0BF",
"~. c #CBC0BF",
"^. c #CFC3BF",
"/. c #D0C1BC",
"(. c #8D9DC1",
"). c #9FAFC9",
"_. c #B6C1D2",
"`. c #CDC2C0",
"'. c #CCC3C3",
"]. c #CDC4C3",
"[. c #CEC4C3",
"{. c #CFC5C5",
"}. c #D0C6C5",
"|. c #D1C7C7",
" X c #D5C9C5",
".X c #D5CAC7",
"XX c #D7CBC9",
"oX c #D8CCC9",
"OX c #DDD1CE",
"+X c #DFD2D0",
"@X c #DDD3D2",
"#X c #E0D3D1",
"$X c #E0D4D1",
"%X c #E5D8D6",
"&X c #E9DCDA",
"*X c #EEE2E1",
"=X c #F8E9E5",
"-X c #E6F1FE",
/* pixels */
"                                            ",
"                  . . . . . .               ",
"                . 9.-.-.-.-.-..             ",
". .           , ` #XoXoXoXoXXX) .           ",
"q I B         a *XP.P.!.E.E.P.OXP           ",
"L -Xl.v       e E.A.P.N.A.n.P.P.#X,         ",
"H _.v.l.,     2 ....H.' ] ;.P.P.!.,         ",
"c h.k.C.e..     . 0 G.. , E.P.P.!.,         ",
"  G j.x.v.7.. . . . G.. . !.P.P.].,         ",
"  . J (.).g.t 4 y.u.P.y.q.|.|.].3..         ",
"    . K _ ^ y e &Xa.].a.@X;.%.d.f.-.,       ",
"      @ C V p , i.F w.D 0.D ! #.a.D..       ",
"      $ g u p m ~ O.Y +.| %.>.( ! <.Z       ",
"        . . 0 5.<.M.T P.G.m.] d ] E.%X6     ",
"            0 >...U h ! R d d E s N.].2     ",
"              , v /.] Z.N.b...#.@ 2 6       ",
"                  n J.E.E.@X3.3..           ",
"                , -.].E. XA m m .           ",
"              j 0 =X X!./ . % % 3 z         ",
"            x k q r.8.6..           z       ",
"              x           z z z z z         ",
"              z z z z z z z z z z z         "
};
