/* XPM */
static char *rskullwait1[] = {
/* columns rows colors chars-per-pixel */
"22 22 122 2 ",
"   c None",
".  c #060605",
"X  c #030408",
"o  c gray3",
"O  c #100A07",
"+  c #16120F",
"@  c #0B0D13",
"#  c #070B1B",
"$  c #090D1D",
"%  c #121110",
"&  c #1C1610",
"*  c #10131F",
"=  c #13141C",
"-  c #1C1D1E",
";  c #20150E",
":  c #281B11",
">  c #231F1C",
",  c #311E12",
"<  c #26211E",
"1  c #352318",
"2  c #3E2C1E",
"3  c #0F1426",
"4  c #1C1E22",
"5  c #171C31",
"6  c #181D32",
"7  c #202124",
"8  c #2E2926",
"9  c #212229",
"0  c #312820",
"q  c #322F2E",
"w  c #373332",
"e  c #383532",
"r  c #3F3C3D",
"t  c #56351F",
"y  c #413024",
"u  c #533F34",
"i  c #5A4030",
"p  c #574538",
"a  c #5F4B40",
"s  c #584D4E",
"d  c #4F5255",
"f  c #595453",
"g  c #664D40",
"h  c #6A5244",
"j  c #64524A",
"k  c #6F584B",
"l  c #615454",
"z  c #605C5C",
"x  c #745D51",
"c  c #786054",
"v  c #71645E",
"b  c #686464",
"n  c #6E6866",
"m  c #636069",
"M  c #766962",
"N  c #6F7377",
"B  c #856D5E",
"V  c #836F66",
"C  c #837065",
"Z  c #897061",
"A  c #87736A",
"S  c #8A766C",
"D  c #917766",
"F  c #937A6A",
"G  c #967C6C",
"H  c #987C6A",
"J  c #8C7971",
"K  c #9D826E",
"L  c #9D8473",
"P  c #94827A",
"I  c #AC8E78",
"U  c #556180",
"Y  c #6A799B",
"T  c #7A89AE",
"R  c #8E8685",
"E  c #868189",
"W  c #948C8B",
"Q  c #888E94",
"!  c #A99386",
"~  c #A19188",
"^  c #A79B97",
"/  c #A49B99",
"(  c #AD9F9A",
")  c #B0A49F",
"_  c #8F9AB1",
"`  c #909BB2",
"'  c #95A0B6",
"]  c #94A2BA",
"[  c #ACA3A3",
"{  c #B2A6A2",
"}  c #B6A8A4",
"|  c #B9A9A2",
" . c #BDAFAB",
".. c #BEB1AD",
"X. c #A2ACBE",
"o. c #AAB2BB",
"O. c #BFB5B4",
"+. c #C0B2AE",
"@. c #CCB5A9",
"#. c #C3B5B1",
"$. c #C5B9B7",
"%. c #C6BBB9",
"&. c #C8BDBA",
"*. c #CBC0BE",
"=. c #D3C0B6",
"-. c #D1C3BF",
";. c #A7B3CE",
":. c #B0BAC9",
">. c #B8C1CE",
",. c #CCC3C3",
"<. c #D0C6C5",
"1. c #D6CAC8",
"2. c #D7CBC9",
"3. c #DBCFCC",
"4. c #C0C7D2",
"5. c #DED2D0",
"6. c #E0D5D4",
"7. c #E6D9D7",
"8. c #EBDEDB",
"9. c #D8E1EC",
"0. c #EAE2E3",
"q. c #F6E8E4",
/* pixels */
"                  . . . . . .               ",
"                . W W W W W / o             ",
"              . n 1.1.1.1.1.6.R .           ",
"              . 6.&.%.&.&.&.%.7.n %         ",
"              . #.+.%.+.+. .$.%.8.w         ",
"    . . .     . F F %.F F Z ..%.3.q         ",
"    - o.Q .     + + %.> + ^ &.%.3.q         ",
"    7 9.X.N . . . . %.. . [ *.%.6.w         ",
"    4 ;.` :.d . f z %.b f O.<.,.=.8         ",
"    @ U _ ` >.w 6.#.&.#.5.} ( +.B O         ",
"      o Y _ ` 4...h O.h  .x g H < o         ",
"        = T ] ' i h c h k g Z F { ,.w       ",
"          9 j a ,  .y ) } #.! y B 6.r       ",
"          . t 2 u P : J P M p v ~ @.q       ",
"          . 1 ; c A p V S j 2 O.0.C +       ",
"            . X a $.L #.&.1.! | O.7         ",
"                . F F F D +.,.! &           ",
"                . L F K + O.,.-.< $         ",
"              5 = 0 K I . e $.q.8 #         ",
"            5     X s l = . m E 9 3 6       ",
"              5 5                 6         ",
"              5 5 5 5 5 5 5 5 5 5 5         "
};
