/* XPM */
static char *rskullwait5[] = {
/* columns rows colors chars-per-pixel */
"22 22 143 2 ",
"   c None",
".  c black",
"X  c #0A0A0C",
"o  c #140700",
"O  c #1B0800",
"+  c #170E09",
"@  c #15110E",
"#  c #070A13",
"$  c #0A0D16",
"%  c #080E1D",
"&  c #0E1017",
"*  c #0F1018",
"=  c #181310",
"-  c #13141A",
";  c #1E1C1C",
":  c #21160F",
">  c #221A13",
",  c #2A211C",
"<  c #3B271A",
"1  c #37291F",
"2  c #0A1024",
"3  c #111629",
"4  c #171C31",
"5  c #191E33",
"6  c #272424",
"7  c #2D2B2B",
"8  c #352720",
"9  c #342B26",
"0  c #332D2B",
"q  c #3E322A",
"w  c #343334",
"e  c #452C1C",
"r  c #523018",
"t  c #433228",
"y  c #443934",
"u  c #413E3D",
"i  c #523F32",
"p  c #524136",
"a  c #584233",
"s  c #52443B",
"d  c #5E4B3F",
"f  c #614638",
"g  c #2F364B",
"h  c #3B445A",
"j  c #474443",
"k  c #4E4744",
"l  c #424548",
"z  c #4F4B4A",
"x  c #514A47",
"c  c #514D4D",
"v  c #4E4E59",
"b  c #5F5B5B",
"n  c #604D40",
"m  c #695042",
"M  c #61504A",
"N  c #6E5649",
"B  c #705748",
"V  c #725B4D",
"C  c #7B5E4F",
"Z  c #685C54",
"A  c #615C5B",
"S  c #6A5C5B",
"D  c #755E52",
"F  c #736052",
"G  c #796252",
"H  c #7C655B",
"J  c #7C685E",
"K  c #49536A",
"L  c #656060",
"P  c #6D6766",
"I  c #60656F",
"U  c #63696F",
"Y  c #766C6C",
"T  c #73717A",
"R  c #777B7F",
"E  c #7F7978",
"W  c #826758",
"Q  c #836D5F",
"!  c #836F65",
"~  c #8F7463",
"^  c #8C776E",
"/  c #937969",
"(  c #987F6F",
")  c #8E7D75",
"_  c #837D7C",
"`  c #958076",
"'  c #9B8577",
"]  c #99847A",
"[  c #9F897C",
"{  c #A28573",
"}  c #A28A7B",
"|  c #AD907D",
" . c #B5957F",
".. c #787E83",
"X. c #7D8AA9",
"o. c #8F8785",
"O. c #82828A",
"+. c #948C8B",
"@. c #988F8D",
"#. c #868C93",
"$. c #9B9291",
"%. c #91979D",
"&. c #A18D85",
"*. c #A59085",
"=. c #A3938D",
"-. c #AF9C93",
";. c #A79E9C",
":. c #AB9D98",
">. c #B0A19C",
",. c #BEAA9F",
"<. c #8E95A0",
"1. c #8D98AF",
"2. c #8A98B8",
"3. c #949EB3",
"4. c #ADA3A1",
"5. c #B7A6A0",
"6. c #B8ABA7",
"7. c #BAAFAD",
"8. c #BFB2AE",
"9. c #C0B2AE",
"0. c #C0B6B5",
"q. c #C5B8B5",
"w. c #C9BAB6",
"e. c #C6BBB9",
"r. c #CBBFBD",
"t. c #CAC0BF",
"y. c #90A0C2",
"u. c #A3AEC5",
"i. c #ABB4C5",
"p. c #B2BDCF",
"a. c #A7B9D4",
"s. c #B0BCD0",
"d. c #CFC3C1",
"f. c #D6C7C2",
"g. c #D7CBC9",
"h. c #D9CCCA",
"j. c #DDD2D0",
"k. c #E2D6D3",
"l. c #E5D9D6",
"z. c #E8DBD6",
"x. c #EEE0DD",
"c. c #DFE9F8",
"v. c #F1E5E4",
/* pixels */
"                  . . . . . .               ",
"                ; ;.+.+.+.@.E .             ",
"              6 $.k.g.g.g.h.t.A .           ",
"              z v.e.e.t.r.r.r.d.u           ",
"              u f.0.e.9.9.8.e.r.r..         ",
"              9 { *.8.~ / ' t.r.7..         ",
". . .           = x 4.@ 0 t.e.r.7..         ",
". l %.w       . . 7 ;.. X j.e.r.0..         ",
". R c.<.7     ; L _ 7.b P g.d.r.-..         ",
". I u.s.#.;   c x.0.r.w.h.:.>.6.n .         ",
". g X.1.p...X j >.H >.D 6.f V H .           ",
"  . h 2.3.i.U + W m D m N B Q . . .         ",
"    $ K y.a.O.O k =.p q.6.7.~ > ;.o..       ",
"      & v Y M o ; ! 1 &.) Z i a ,.g..       ",
"        O r e 8 y ! d ^ J s p ] &.5..       ",
"        : < t C ` 9.} d.g.r.' g.r.V .       ",
"          . , C G ( / [ d.8./ d.7..         ",
"              + q | / F w l.6.~ ; 3         ",
"              % * s  .G . A z.-..           ",
"            5   2 - S k $ # O.T $   4       ",
"              4 5                 4         ",
"              4 4 4 4 4 4 4 4 4 4           "
};
