/* XPM */
static char *rskullwait4[] = {
/* columns rows colors chars-per-pixel */
"22 22 116 2 ",
"   c None",
".  c #050504",
"X  c #00020B",
"o  c #07090D",
"O  c #0A0908",
"+  c #110600",
"@  c #17100A",
"#  c #19120E",
"$  c #010513",
"%  c #0A0D16",
"&  c #0B0F1B",
"*  c #121111",
"=  c #1F1D1D",
"-  c #2F251E",
";  c #3E2413",
":  c #31241A",
">  c #1E1F20",
",  c #10152A",
"<  c #13182E",
"1  c #171C31",
"2  c #181D33",
"3  c #2B2522",
"4  c #2E2B29",
"5  c #352A23",
"6  c #3C2C23",
"7  c #3E342D",
"8  c #242A3B",
"9  c #333030",
"0  c #383535",
"q  c #363738",
"w  c #402A1C",
"e  c #54321A",
"r  c #443428",
"t  c #4F3B2F",
"y  c #4C3D34",
"u  c #423E3D",
"i  c #44403F",
"p  c #584438",
"a  c #664C3E",
"s  c #303648",
"d  c #3D465A",
"f  c #46494C",
"g  c #524842",
"h  c #584941",
"j  c #51484A",
"k  c #5C4F4C",
"l  c #454856",
"z  c #4B4F57",
"x  c #565251",
"c  c #684F42",
"v  c #695243",
"b  c #70584A",
"n  c #675959",
"m  c #755E52",
"M  c #7D6253",
"N  c #7C665A",
"B  c #5D6064",
"V  c #676160",
"C  c #6D6766",
"Z  c #6E6867",
"A  c #756B6A",
"S  c #7B7473",
"D  c #757179",
"F  c #846B5D",
"G  c #877166",
"H  c #8B7161",
"J  c #8C786D",
"K  c #947B6B",
"L  c #987F6E",
"P  c #857974",
"I  c #9A8375",
"U  c #90847E",
"Y  c #A68D7E",
"T  c #B0917B",
"R  c #7E7981",
"E  c #7886A7",
"W  c #978F8E",
"Q  c #9D928E",
"!  c #858B93",
"~  c #8F959C",
"^  c #A2918A",
"/  c #B0998D",
"(  c #BA9E8C",
")  c #B6A196",
"_  c #B5A59F",
"`  c #979EA7",
"'  c #8F9AB1",
"]  c #8896B8",
"[  c #949FB3",
"{  c #97A0AC",
"}  c #99A3B5",
"|  c #BAAAA2",
" . c #B6ACAA",
".. c #BAADA9",
"X. c #BBB0AE",
"o. c #A3A8B7",
"O. c #BFB3B0",
"+. c #C3B8B6",
"@. c #C4B8B5",
"#. c #C6BBB9",
"$. c #CABFBD",
"%. c #8E9EC2",
"&. c #9EAFC9",
"*. c #A7B2C5",
"=. c #AAB5CC",
"-. c #B9BCC1",
";. c #CEC5C4",
":. c #D3C7C6",
">. c #D5C9C7",
",. c #D7CBC8",
"<. c #DBCFCD",
"1. c #DDD0CE",
"2. c #E1D3CF",
"3. c #E5D8D5",
"4. c #EBDEDC",
"5. c #E3EEFB",
/* pixels */
"                                            ",
"                . . . . . .                 ",
"              . S C C C Z V .               ",
"            * Z 4.1.1.1.1.>.i               ",
"            0 4.#.#.#.#.#.$.:.=             ",
"            9 <.#.#.#.#.#.#.#.#..           ",
"  . . .     3 ( / @.Y Y I $.#.$..           ",
". q ~ f       5 g X.- 7 | #.#.#..           ",
"  B 5.{ q   . . *  .. . <.#.#.;..           ",
"  z =.*.` > . 0 x O.9 u >.$.$.X..           ",
"  8 E ' *.! 4 3.$.#.$.:.X.O.@.F .           ",
"  . s ] [ } -.| A @.N $.b m I . .           ",
"    X d %.&.o.M a G a N c H r W W .         ",
"      o l A k p ^ t _ ^ H F t ) <.O         ",
"        + e ; h P : Q U v t F Y $.O         ",
"        @ w 6 b 6 r r r r y I ;.;.O         ",
"          . # J @.I ;.#.#.@.K #.$.O         ",
"            & 5 / L J 4 3.$...= =           ",
"            < % t T F . j 2.,.. $           ",
"          1   , % n j % X R D %   1         ",
"            1 2                 1           ",
"            1 1 1 1 1 1 1 1 1 1 1           "
};
