/* XPM */
static char *rskullwait2[] = {
/* columns rows colors chars-per-pixel */
"22 22 117 2 ",
"   c None",
".  c black",
"X  c #0B0500",
"o  c #0A0805",
"O  c #00030D",
"+  c #070808",
"@  c #0C0A0C",
"#  c #100B07",
"$  c #110F0D",
"%  c #14120F",
"&  c #0C0E13",
"*  c #0D0E18",
"=  c #151413",
"-  c #1E1611",
";  c #131418",
":  c #171819",
">  c #1E1D1C",
",  c #201207",
"<  c #241811",
"1  c #26221F",
"2  c #392417",
"3  c #352419",
"4  c #3F2A1C",
"5  c #0E1222",
"6  c #181922",
"7  c #13172A",
"8  c #171C31",
"9  c #181D32",
"0  c #222020",
"q  c #2D2B2B",
"w  c #312721",
"e  c #332922",
"r  c #382E24",
"t  c #322F2E",
"y  c #392F29",
"u  c #242830",
"i  c #2F3134",
"p  c #353333",
"a  c #3A3737",
"s  c #3E3C3C",
"d  c #402D20",
"f  c #433023",
"g  c #5A3A25",
"h  c #513A2D",
"j  c #564235",
"k  c #5C4333",
"l  c #574538",
"z  c #624B3F",
"x  c #5A4C43",
"c  c #4B4F52",
"v  c #555050",
"b  c #5B5655",
"n  c #63564E",
"m  c #6A564A",
"M  c #6F594D",
"N  c #70574A",
"B  c #755B4E",
"V  c #645750",
"C  c #655952",
"Z  c #765F53",
"A  c #7B6153",
"S  c #7D665B",
"D  c #49536D",
"F  c #6D6766",
"G  c #776B65",
"H  c #756F6D",
"J  c #696E71",
"K  c #8B7365",
"L  c #8A746A",
"P  c #967D6E",
"I  c #9A806F",
"U  c #9D8372",
"Y  c #A28571",
"T  c #A48873",
"R  c #A78E7E",
"E  c #5D6A89",
"W  c #6D7B9D",
"Q  c #817C85",
"!  c #84898D",
"~  c #818595",
"^  c #A68F81",
"/  c #AB9284",
"(  c #A5948B",
")  c #B29888",
"_  c #AA9991",
"`  c #8E97A9",
"'  c #9399A1",
"]  c #8F9CB6",
"[  c #8F9DBB",
"{  c #97A2B6",
"}  c #97A5BC",
"|  c #98A3B8",
" . c #BBADA7",
".. c #B9AFAC",
"X. c #A5AEBE",
"o. c #BFB3B0",
"O. c #CAB3A7",
"+. c #C2B6B3",
"@. c #C5BAB7",
"#. c #CABAB3",
"$. c #C6BBB9",
"%. c #CBBEBB",
"&. c #CDC0BD",
"*. c #9DACCA",
"=. c #ADB7C4",
"-. c #B3BCC8",
";. c #CCC2C1",
":. c #D1C6C4",
">. c #D7CBC8",
",. c #DBCFCB",
"<. c #DCD0CD",
"1. c #E3D6D4",
"2. c #E4D8D6",
"3. c #E5DCDD",
"4. c #EDE0DD",
"5. c #CCD6E1",
"6. c #D0D9E4",
/* pixels */
"                                            ",
"                    . . . . . .             ",
"                  . H F F F F H .           ",
"                  v 1.<.<.<.<.2.b           ",
"      + 0 :     = 2.$.$.$.$.$.$.1.a         ",
"      i 6.' .   = :.$.$.$.$.$.$.$.>.0       ",
"      p 5.| ! . $ ) / $./ / P +.$.,.0       ",
"      u *.{ X.J . e y $.w w _ @.$.>.0       ",
"      & D [ | =.c . . $.. . o.%.$.<.0       ",
"      . O E ] } -.$ s $.p t @.&.%.#.=       ",
"        . & W ` ~ h :.$.%.:.+.o.$.R 1       ",
"          . = k h 3 S ;.Z ;.S M P +.&.0     ",
"            X g 4 z N x N L N P 4 K 1.q     ",
"            . < - B 4 , d 2 4 j G ( O.1     ",
"              . . A C l C n V f &.3.S #     ",
"                @ m &.U %.>.>.^  ...;       ",
"                  o I P P @.$.%.R $         ",
"                7 . T P P > ;.%.%.% 5       ",
"                8 ; r T Y . s &.4.- 5       ",
"              8     O b b * . J Q 6 7 9     ",
"                8 8                 9       ",
"                8 8 8 8 8 8 8 8 8 8 8       "
};
