/* XPM */
static char *rskull6[] = {
/* columns rows colors chars-per-pixel */
"22 22 188 2 ",
"   c None",
".  c black",
"X  c #000003",
"o  c #040100",
"O  c #060403",
"+  c #000004",
"@  c #0D0B09",
"#  c #120F0C",
"$  c #130F0D",
"%  c #16110C",
"&  c #000210",
"*  c #010514",
"=  c #030816",
"-  c #0E0F10",
";  c #080914",
":  c #090E1D",
">  c #171512",
",  c #151516",
"<  c #181716",
"1  c #191919",
"2  c #1D1C1B",
"3  c #1D1E1E",
"4  c #321D0F",
"5  c #24201E",
"6  c #2F2118",
"7  c #372010",
"8  c #332014",
"9  c #3E2A1C",
"0  c #171C30",
"q  c #171C31",
"w  c #1C2130",
"e  c #222020",
"r  c #272424",
"t  c #2C2521",
"y  c #262829",
"u  c #302D2A",
"i  c #352C2A",
"p  c #302E2F",
"a  c #272E3F",
"s  c #333030",
"d  c #3E3B3B",
"f  c #4F301A",
"g  c #413025",
"h  c #403127",
"j  c #4E392A",
"k  c #4C3C2F",
"l  c #524034",
"z  c #564337",
"x  c #5F4434",
"c  c #2F384D",
"v  c #494645",
"b  c #464449",
"n  c #524742",
"m  c #544741",
"M  c #534B47",
"N  c #655147",
"B  c #6C5548",
"V  c #69584D",
"C  c #725747",
"Z  c #71594A",
"A  c #71584B",
"S  c #735C4F",
"D  c #775E4F",
"F  c #635D5A",
"G  c #755E53",
"H  c #66615C",
"J  c #746054",
"K  c #776155",
"L  c #7F6351",
"P  c #7C6355",
"I  c #7B655A",
"U  c #666260",
"Y  c #686261",
"T  c #6A6463",
"R  c #6E6968",
"E  c #6F6968",
"W  c #746B67",
"Q  c #706A69",
"!  c #716B6A",
"~  c #716E6E",
"^  c #756E6D",
"/  c #77706F",
"(  c #767070",
")  c #7A7474",
"_  c #7F7776",
"`  c #847065",
"'  c #8E7567",
"]  c #857168",
"[  c #887568",
"{  c #8C7769",
"}  c #907564",
"|  c #907566",
" . c #937968",
".. c #9B7E6C",
"X. c #8E7A72",
"o. c #817B7B",
"O. c #857878",
"+. c #887F7C",
"@. c #927E71",
"#. c #99806F",
"$. c #97857D",
"%. c #97857E",
"&. c #9A8478",
"*. c #737687",
"=. c #7B7C89",
"-. c #6E7994",
";. c #6E7C9B",
":. c #7F868F",
">. c #7582A0",
",. c #8A8280",
"<. c #8F8886",
"1. c #988780",
"2. c #968A84",
"3. c #9B8A82",
"4. c #9E8E87",
"5. c #988F8E",
"6. c #9B928F",
"7. c #968F92",
"8. c #9A9291",
"9. c #9E9796",
"0. c #9E989E",
"q. c #A9958D",
"w. c #AD988D",
"e. c #B89D8C",
"r. c #A89891",
"t. c #AC9A90",
"y. c #AD9B91",
"u. c #AF9E95",
"i. c #A79E9D",
"p. c #AA9F9B",
"a. c #B09E96",
"s. c #9299A1",
"d. c #8D9AB2",
"f. c #8B9AB6",
"g. c #929EB7",
"h. c #A1A7AD",
"j. c #B0A6A5",
"k. c #B7AAA6",
"l. c #BBADA7",
"z. c #B5ABAA",
"x. c #BBACA8",
"c. c #A0A8B2",
"v. c #C1ADA3",
"b. c #C3B1AA",
"n. c #C1B3AF",
"m. c #C6B6AF",
"M. c #C1B4B1",
"N. c #C2B5B2",
"B. c #C6B7B2",
"V. c #C3B8B5",
"C. c #C4B8B5",
"Z. c #C5BAB7",
"A. c #C5BAB8",
"S. c #C5BAB9",
"D. c #C7BCBA",
"F. c #C7BCBB",
"G. c #CBBDBA",
"H. c #C8BDBC",
"J. c #CEC0BC",
"K. c #D2C1BA",
"L. c #A1ADC1",
"P. c #A4AEC2",
"I. c #AEB9CC",
"U. c #B0B9C4",
"Y. c #ADBDD4",
"T. c #CAC1C0",
"R. c #CBC1C0",
"E. c #CDC3C1",
"W. c #D1C4C0",
"Q. c #D1C5C1",
"!. c #D7C7C2",
"~. c #D1C8C9",
"^. c #D4CCCD",
"/. c #D8CCCA",
"(. c #D8CECD",
"). c #DBCFCD",
"_. c #DCCFCD",
"`. c #DBD0CF",
"'. c #DCD0CF",
"]. c #CBD4DF",
"[. c #E0D3D1",
"{. c #E1D5D3",
"}. c #E1D6D5",
"|. c #E5D8D6",
" X c #EADEDB",
".X c #E1DDE2",
"XX c #F1E5E2",
"oX c #F0E4E3",
/* pixels */
"                                            ",
"                                            ",
"                . . . . .                   ",
"              d Q Y Y Y Q r                 ",
"            s j.|./././. X5.2               ",
"          . 8.'.A.A.H.H.A.{.,.<             ",
". - ,     . +.J.V.V.N.N.V.A.{.Q .           ",
". s.].y   . V ..l.u. .} u.R./.Y .           ",
". h.L.U.2   @ # 6.F # W W.A./.Y .           ",
". -.g.L.c.2 . . <.v . U /.A.'.R .           ",
"  w ;.f.I.:.Q _ z.8.( i./.~.n.m .           ",
"    a >.f.Y..Xn.V.x.W.n.1.u.v.m .           ",
"    . c *.=.7.B %.I X.` x L w._ r           ",
"      . 8 f 4 N D D K G ' #.D a.O..         ",
"      . 9 8 D N.] 4.R.R.u.C %.{.R .         ",
"        . . K } g l L l 6 j q.oX/ .         ",
"            % 2.&.4.k.p.@.g 5 p ,           ",
"            : p [ e.H.~.W.M . &             ",
"              & t j [ K.oXH .               ",
"          0 0   = . p O.0.b -   0           ",
"          0 0 0               0 0           ",
"            0 0 0 0 0 0 0 0 0 0             "
};
