/* XPM */
static char *rskull2[] = {
/* columns rows colors chars-per-pixel */
"22 22 174 2 ",
"   c None",
".  c black",
"X  c #000001",
"o  c #020101",
"O  c #000003",
"+  c #030202",
"@  c #000006",
"#  c #080604",
"$  c #00020A",
"%  c #03040A",
"&  c #00010E",
"*  c #05080F",
"=  c gray3",
"-  c #0E0E0F",
";  c #140D08",
":  c #080914",
">  c #000718",
",  c #060A1A",
"<  c #0F121E",
"1  c #1A181A",
"2  c #281E16",
"3  c #2A1E18",
"4  c #171C30",
"5  c #171C31",
"6  c #191E34",
"7  c #1D222F",
"8  c #272224",
"9  c #2A2929",
"0  c #2D2A2A",
"q  c #2D2B2F",
"w  c #382E27",
"e  c #392F2A",
"r  c #3B332C",
"t  c #282F3C",
"y  c #343131",
"u  c #3F3C3B",
"i  c #443023",
"p  c #45362E",
"a  c #48382F",
"s  c #433A3A",
"d  c #403D3C",
"f  c #513D30",
"g  c #513E32",
"h  c #43403F",
"j  c #534337",
"k  c #504138",
"l  c #584638",
"z  c #604534",
"x  c #5A4E45",
"c  c #514B48",
"v  c #4D5053",
"b  c #585453",
"n  c #54575A",
"m  c #635143",
"M  c #685445",
"N  c #69594F",
"B  c #645B55",
"V  c #625C5B",
"C  c #625D5C",
"Z  c #785F51",
"A  c #776252",
"S  c #7B6152",
"D  c #796054",
"F  c #786155",
"G  c #7D6554",
"H  c #756358",
"J  c #776459",
"K  c #7C675B",
"L  c #7D675C",
"P  c #6C6665",
"I  c #736761",
"U  c #706662",
"Y  c #7F6B61",
"T  c #7F6C67",
"R  c #766D69",
"E  c #777270",
"W  c #7A7372",
"Q  c #787473",
"!  c #7B7573",
"~  c #7E7675",
"^  c #7D7776",
"/  c #7D7777",
"(  c #876D5A",
")  c #83695D",
"_  c #876E5D",
"`  c #847066",
"'  c #887163",
"]  c #897163",
"[  c #8D7565",
"{  c #867268",
"}  c #877369",
"|  c #88756C",
" . c #8E7D75",
".. c #857D7C",
"X. c #857E7D",
"o. c #877F7E",
"O. c #897D78",
"+. c #987F71",
"@. c #968178",
"#. c #9B877B",
"$. c #9D877B",
"%. c #A58B7A",
"&. c #A68D7D",
"*. c #6A748D",
"=. c #898282",
"-. c #8B8484",
";. c #8B8685",
":. c #978781",
">. c #928A88",
",. c #938B89",
"<. c #948D8C",
"1. c #958F8F",
"2. c #8A9098",
"3. c #A08D83",
"4. c #A28E84",
"5. c #A7968E",
"6. c #AA968D",
"7. c #B29582",
"8. c #BB9A85",
"9. c #AE9C92",
"0. c #A19999",
"q. c #A49C9A",
"w. c #AFA09A",
"e. c #B4A098",
"r. c #BBA69A",
"t. c #949AA0",
"y. c #AEA5A4",
"u. c #B5A6A0",
"i. c #B1A7A5",
"p. c #B1A8A6",
"a. c #BCA9A0",
"s. c #BBACA6",
"d. c #B2A9A8",
"f. c #BBAEA9",
"g. c #BFAFA9",
"h. c #B8AEAD",
"j. c #BEB1AD",
"k. c #C0A698",
"l. c #C0B2AE",
"z. c #C2B4AF",
"x. c #C6B4AF",
"c. c #C3B6B3",
"v. c #C2B8B7",
"b. c #C4B8B4",
"n. c #CBBAB3",
"m. c #CDBCB6",
"M. c #CEBDB6",
"N. c #C5BBB9",
"B. c #C6BAB8",
"V. c #C6BBB9",
"C. c #C6BBBA",
"Z. c #C6BCBA",
"A. c #C8BDBB",
"S. c #C9BEBC",
"D. c #C8BFBF",
"F. c #CAC0BF",
"G. c #CBC2C1",
"H. c #D5C9C7",
"J. c #D0C7C8",
"K. c #D6CBC9",
"L. c #D7CCCA",
"P. c #D7CDCC",
"I. c #D8CCC9",
"U. c #D9CDCA",
"Y. c #DBCFCC",
"T. c #DCD0CD",
"R. c #DBD1D2",
"E. c #DFD3D0",
"W. c #E0D3D1",
"Q. c #E1D4D2",
"!. c #E1D5D2",
"~. c #E6D7D3",
"^. c #E4D8D7",
"/. c #E0D8D8",
/* pixels */
"                                            ",
"                . . . . .                   ",
"              h >.X.X.X.>.u                 ",
"            d p.Q.I.I.I.Q.i.y               ",
"          . =.^.Z.A.F.F.Z.I.q.0             ",
"          . R m.b.c.g.s.j.Z.E.X..           ",
"      . - - k ( w.5.G ( 9.G.H.W .           ",
"      . 2.v . . X.P . V I.Z.H.W .           ",
"      . t.n . . W V . b T.Z.P.W .           ",
"      . *.t c q.g.d.>.y.P.J.m.N .           ",
"        7 * =.z.g.i.z.z.| 4.H ;             ",
"          . I ( ` K K Y z +.O.0             ",
"            3 H G G { { ' $.Q.=..           ",
"            . W @. .A.b.:.G r.W .           ",
"            . p f f Z i I E.s.j .           ",
"            . . a e.A.$.4./.W #             ",
"            . e ' %.m.P.6.%.x .             ",
"            w ' 7.m r >.Q.k.l .             ",
"          . M 8.A 1 & 0 E B 2 &             ",
"          : d Y 8 >   , . . & < 6           ",
"                    5           5           ",
"            5 5 5 5 5 5 5 5 5 5             "
};
