/* XPM */
static char *rskull4[] = {
/* columns rows colors chars-per-pixel */
"22 22 200 2 ",
"   c None",
".  c black",
"X  c #000006",
"o  c #090706",
"O  c #000008",
"+  c #160D07",
"@  c #000412",
"#  c #0D0F1A",
"$  c #090D1D",
"%  c #0B0D1C",
"&  c #141210",
"*  c #17141B",
"=  c #12161F",
"-  c #1C1F1F",
";  c #361F0C",
":  c #342115",
">  c #362518",
",  c #34251B",
"<  c #3B281C",
"1  c #171C30",
"2  c #171C31",
"3  c #1B202C",
"4  c #212324",
"5  c #212126",
"6  c #242527",
"7  c #372A20",
"8  c #342D2C",
"9  c #232B33",
"0  c #242A3B",
"q  c #2F3133",
"w  c #313335",
"e  c #383236",
"r  c #3B3837",
"t  c #3E3A3A",
"y  c #4D2D16",
"u  c #473327",
"i  c #4B3526",
"p  c #49382C",
"a  c #483A31",
"s  c #4A3B32",
"d  c #4E3E33",
"f  c #493C34",
"g  c #483D3F",
"h  c #53453A",
"j  c #574438",
"k  c #584538",
"l  c #59483A",
"z  c #5A493D",
"x  c #674C3C",
"c  c #3E4145",
"v  c #434041",
"b  c #4B4646",
"n  c #534749",
"m  c #585352",
"M  c #5D5959",
"N  c #5E5958",
"B  c #614F43",
"V  c #6A5444",
"C  c #61534C",
"Z  c #6C584B",
"A  c #6B5A4E",
"S  c #705848",
"D  c #7D5F4D",
"F  c #615C5B",
"G  c #745D50",
"H  c #745D51",
"J  c #66615F",
"K  c #766053",
"L  c #7B6052",
"P  c #7C6457",
"I  c #79645A",
"U  c #7F6A5F",
"Y  c #646060",
"T  c #666160",
"R  c #6F6661",
"E  c #6E6764",
"W  c #776861",
"Q  c #746963",
"!  c #7F6B61",
"~  c #716B69",
"^  c #716B6A",
"/  c #736C69",
"(  c #726C6A",
")  c #7F726B",
"_  c #7C716C",
"`  c #676771",
"'  c #7A7472",
"]  c #7D7774",
"[  c #806959",
"{  c #80685B",
"}  c #826B5A",
"|  c #856D5F",
" . c #836D62",
".. c #8F7462",
"X. c #87766D",
"o. c #8E796D",
"O. c #937966",
"+. c #967A6B",
"@. c #947C6E",
"#. c #897871",
"$. c #8F7E75",
"%. c #847C79",
"&. c #807C7C",
"*. c #857F7E",
"=. c #8A837F",
"-. c #97857E",
";. c #97867E",
":. c #A38571",
">. c #A88D7A",
",. c #5F6B88",
"<. c #657291",
"1. c #6C7998",
"2. c #807B82",
"3. c #8A8281",
"4. c #8C8483",
"5. c #8E8888",
"6. c #9A8A82",
"7. c #918A8A",
"8. c #A58F82",
"9. c #A4938A",
"0. c #A89489",
"q. c #A89891",
"w. c #AC9B96",
"e. c #AF9D94",
"r. c #A39A98",
"t. c #AD9F9A",
"y. c #B09D94",
"u. c #B19F97",
"i. c #B3A299",
"p. c #B4A299",
"a. c #B4A39B",
"s. c #BAA79E",
"d. c #BDA99E",
"f. c #979EA4",
"g. c #8E9BB4",
"h. c #8F9EBC",
"j. c #909CB6",
"k. c #9EA4AD",
"l. c #95A1B6",
"z. c #9FA7B1",
"x. c #9BA5BA",
"c. c #AEA3A0",
"v. c #AFA5A3",
"b. c #AFA6A4",
"n. c #B5A6A1",
"m. c #B0A6A5",
"M. c #B4AAA7",
"N. c #B9A9A0",
"B. c #BCAAA0",
"V. c #BAAAA5",
"C. c #B8ABA6",
"Z. c #B9ABA6",
"A. c #BAACA7",
"S. c #BCB0AB",
"D. c #BCB1AE",
"F. c #BDB3B1",
"G. c #BCB4B2",
"H. c #BDB4B2",
"J. c #BEB4B2",
"K. c #C0AEA5",
"L. c #C2B2AB",
"P. c #C2B3AE",
"I. c #C8B4AB",
"U. c #C4B7B3",
"Y. c #C1B7B5",
"T. c #C1B8B7",
"R. c #C6BBB8",
"E. c #C6BBB9",
"W. c #C6BBBA",
"Q. c #C6BCBA",
"!. c #C7BCBA",
"~. c #C6BCBB",
"^. c #C7BDBB",
"/. c #C8BEBC",
"(. c #C8BEBD",
"). c #A2ADC1",
"_. c #B2BAC6",
"`. c #BDC6D5",
"'. c #CAC0C0",
"]. c #CBC2C1",
"[. c #CBC2C2",
"{. c #CDC3C3",
"}. c #D0C3C0",
"|. c #D2C6C4",
" X c #D1C7C6",
".X c #D0C7C7",
"XX c #D0C8C8",
"oX c #D7CBC9",
"OX c #D7CCCA",
"+X c #D8CCC9",
"@X c #D9CDCA",
"#X c #DBCFCE",
"$X c #DCD1CE",
"%X c #E3D6D4",
"&X c #E0D7D6",
"*X c #EBDEDB",
"=X c #EEE1DF",
"-X c #C0D0E9",
";X c #D8E2F0",
":X c #F5EAEA",
/* pixels */
"                  . . . . . . .             ",
"                . N m.r.r.r.M.b             ",
"                m J.oX|.|.|.@XD.t           ",
"              . 7.&XQ.(.].].Q.@Xb.r         ",
"              . _ I.U.P.B.p.B.Q.&X' .       ",
"  . 4 w       . a S t.6.V [ p.].oX^ .       ",
"  . k.;Xc       . . 4.N . T $XQ.oX^ .       ",
"  . f.x.`.q   . . . 4.F . T @XQ.oX^ .       ",
"  . ,.j.l._.4 . ^ J.U.J.b.J.|.oXK.a .       ",
"    = <.g.).z.- 5.u.B.q.B.m.I o.B.9.7       ",
"      3 1.h.-X9 C L U G K G x ..+.u.W .     ",
"        0 ` 2.8 + W [  .-.-.8.[ A B.%..     ",
"        . ; y : & %.! X.D.b.$.i _ :X' .     ",
"        . , < . A +.p k L j , u $.T.J .     ",
"          . . . z P.0.q.].].d.a . . .       ",
"                o B s.(.Q.|.p.O.a .         ",
"                . E |.Q.@Xq. .>.j O         ",
"                . =.=X*X%.a D :.z .         ",
"                # v E ^ 4 = g n e #         ",
"              1   @ . . #           1       ",
"              1 1         1 1 1 1 1 1       ",
"                1 1 1 1 1 1 1 1 1 1         "
};
