/* XPM */
static char *rskullwait3[] = {
/* columns rows colors chars-per-pixel */
"22 22 123 2 ",
"   c None",
".  c black",
"X  c #090000",
"o  c #0A0907",
"O  c #00020F",
"+  c #110B07",
"@  c #120D0A",
"#  c #11100F",
"$  c #040710",
"%  c #0A0C16",
"&  c #0A0D18",
"*  c #121111",
"=  c #181717",
"-  c #1F1A17",
";  c #10121B",
":  c #1A1919",
">  c #271F17",
",  c #2D1F15",
"<  c #211E1D",
"1  c #3F2514",
"2  c #30261F",
"3  c #0E1120",
"4  c #13192F",
"5  c #171C32",
"6  c #181D32",
"7  c #1D212E",
"8  c #232121",
"9  c #292726",
"0  c #2C2A29",
"q  c #352A23",
"w  c #3D2F24",
"e  c #3F3126",
"r  c #272C3A",
"t  c #353333",
"y  c #432C1E",
"u  c #55321A",
"i  c #463427",
"p  c #443428",
"a  c #4B362A",
"s  c #4F3A2E",
"d  c #453B34",
"f  c #45413E",
"g  c #504037",
"h  c #614738",
"j  c #63493B",
"k  c #3B3D43",
"l  c #363D4F",
"z  c #3E4042",
"x  c #494645",
"c  c #4D4A49",
"v  c #574C4D",
"b  c #404452",
"n  c #535659",
"m  c #664E41",
"M  c #6D5748",
"N  c #745C4F",
"B  c #615554",
"V  c #625D5B",
"C  c #745D51",
"Z  c #786155",
"A  c #7B6458",
"S  c #6D6766",
"D  c #6F6968",
"F  c #746968",
"G  c #77716F",
"H  c #76737B",
"J  c #7C777F",
"K  c #816759",
"L  c #866E62",
"P  c #896F60",
"I  c #8C7262",
"U  c #897368",
"Y  c #907767",
"T  c #927868",
"R  c #8C817C",
"E  c #968174",
"W  c #988071",
"Q  c #9C8679",
"!  c #A78D7D",
"~  c #AA8D78",
"^  c #7482A4",
"/  c #8F8888",
"(  c #928782",
")  c #998E8A",
"_  c #8C9299",
"`  c #9F9695",
"'  c #A99080",
"]  c #A5938C",
"[  c #AD9588",
"{  c #B79C8B",
"}  c #A89892",
"|  c #B3A29A",
" . c #969EA6",
".. c #8493B7",
"X. c #949FB3",
"o. c #97A2B5",
"O. c #9EA7B4",
"+. c #A2AAB4",
"@. c #A0AABF",
"#. c #BFB3B0",
"$. c #B5B8BE",
"%. c #C1B3AF",
"&. c #C2B7B5",
"*. c #C5B9B6",
"=. c #CAB9B3",
"-. c #C6BBB9",
";. c #CBBEBB",
":. c #CBC0BE",
">. c #8C9DC0",
",. c #9CACC6",
"<. c #AEBACF",
"1. c #CCC2C0",
"2. c #D0C4C2",
"3. c #D4C8C6",
"4. c #D8CBC6",
"5. c #D7CCC9",
"6. c #D8CDCB",
"7. c #DDD1CF",
"8. c #E2D6D2",
"9. c #E4D8D4",
"0. c #E7DBD8",
"q. c #E9DDDA",
"w. c #E4EEFB",
/* pixels */
"                                            ",
"                    . . . . . .             ",
"                  . G S S S S D .           ",
"                  V 0.7.7.7.7.7.c           ",
"                8 q.-.-.-.-.-.-.7.0         ",
"                8 5.-.-.-.-.-.-.-.2.*       ",
"      . . .     - { [ -.! ' W -.-.3.*       ",
"      0 _ n       q d &.2 q | -.-.2.*       ",
"      c w.O.z     . . &.. . 1.-.-.5.*       ",
"      k <.,.+.8 . t x &.t t :.;.;.=.#       ",
"      7 ^ X.@. .< 8.;.-.;.2.#.#.*.Y o       ",
"        r ..X.o.$.%.A ;.Z 1.C C ! X .       ",
"        . l >.,.@.K j U h A m I i / ` *     ",
"          . b F B s } a | ] I P a [ 8.:     ",
"            X u 1 g R , ) ( M a Z Q 2.=     ",
"            + y 2 N w p p p p d T :.6.=     ",
"              . @ L *.T ;.-.-.-.T &.3.=     ",
"                3 > { T E 8 7.;.&.9 :       ",
"                5 & e ~ Y . f 4.9.. O       ",
"              5   4 $ B v % . H J ;   5     ",
"                5 6                 5       ",
"                5 5 5 5 5 5 5 5 5 5 5       "
};
