/* XPM */
static char *rskullwait6[] = {
/* columns rows colors chars-per-pixel */
"22 22 146 2 ",
"   c None",
".  c black",
"X  c #090000",
"o  c #070708",
"O  c #160500",
"+  c #100C08",
"@  c #15110E",
"#  c #070912",
"$  c #0A0D16",
"%  c #060C1F",
"&  c #090E1E",
"*  c #111117",
"=  c #181310",
"-  c #12141D",
";  c #1F1E1E",
":  c #261304",
">  c #231812",
",  c #2A211C",
"<  c #30241D",
"1  c #1C1A20",
"2  c #171C31",
"3  c #181D33",
"4  c #1E2020",
"5  c #262423",
"6  c #262829",
"7  c #2D2A2A",
"8  c #342923",
"9  c #302D2D",
"0  c #3C3938",
"q  c #452D1F",
"w  c #502E17",
"e  c #41362F",
"r  c #4A382E",
"t  c #503C2E",
"y  c #4B3D33",
"u  c #423C38",
"i  c #4E423C",
"p  c #5F4536",
"a  c #574438",
"s  c #59473B",
"d  c #5F4D3F",
"f  c #60483A",
"g  c #363F57",
"h  c #443D40",
"j  c #444242",
"k  c #5F4D45",
"l  c #554F4D",
"z  c #4C4F54",
"x  c #575251",
"c  c #5A5555",
"v  c #53515B",
"b  c #51585D",
"n  c #5E5A5A",
"m  c #624F43",
"M  c #675143",
"N  c #6C5447",
"B  c #665449",
"V  c #6D5548",
"C  c #765C4D",
"Z  c #795D4E",
"A  c #665851",
"S  c #625D5C",
"D  c #6C5E5C",
"F  c #745C50",
"G  c #65605F",
"H  c #7F6656",
"J  c #77655A",
"K  c #7D675C",
"L  c #7D685C",
"P  c #444E67",
"I  c #505C76",
"U  c #656160",
"Y  c #706A67",
"T  c #716B6A",
"R  c #77716F",
"E  c #6A6871",
"W  c #6E757F",
"Q  c #79767B",
"!  c #806456",
"~  c #857066",
"^  c #8E7462",
"/  c #8D786F",
"(  c #917766",
")  c #927868",
"_  c #997F6E",
"`  c #8B7A73",
"'  c #837C7A",
"]  c #998173",
"[  c #9C867C",
"{  c #A08371",
"}  c #A08779",
"|  c #A08A7D",
" . c #AC8E7C",
".. c #797F86",
"X. c #8D8786",
"o. c #89858D",
"O. c #968780",
"+. c #9C8980",
"@. c #948C8B",
"#. c #878E97",
"$. c #898E93",
"%. c #9A9291",
"&. c #91969D",
"*. c #A58E80",
"=. c #A99387",
"-. c #AA978D",
";. c #B99982",
":. c #A79791",
">. c #AA9B96",
",. c #A79D9C",
"<. c #AAA19F",
"1. c #B1A39E",
"2. c #808DAB",
"3. c #8C97AE",
"4. c #8B99B7",
"5. c #939EB3",
"6. c #A69FA0",
"7. c #AFA8A7",
"8. c #B0A6A5",
"9. c #BCACA4",
"0. c #BBADA8",
"q. c #B9B0AD",
"w. c #C0B2AD",
"e. c #C8B4AB",
"r. c #C3B7B3",
"t. c #C4B9B7",
"y. c #C6BAB8",
"u. c #CBBFBD",
"i. c #CCC0BF",
"p. c #D1C3BF",
"a. c #90A0C1",
"s. c #9DA9C0",
"d. c #AFB9C8",
"f. c #AABCD7",
"g. c #B9C4D5",
"h. c #CBC2C1",
"j. c #D5C6C1",
"k. c #D5C9C7",
"l. c #D7CBC9",
"z. c #DACECC",
"x. c #DAD0CF",
"c. c #E2D5D3",
"v. c #E7DAD8",
"b. c #EADCD8",
"n. c #DAE5F4",
"m. c #EEE2E1",
/* pixels */
"                  . . . . . .               ",
"                7 ,.@.@.@.%.T .             ",
"              9 ,.c.l.l.l.z.y.x             ",
"            . S m.y.y.i.u.u.h.t.0           ",
"              l j.r.t.w.w.q.y.h.q..         ",
"              e { -.0.^ ) | h.u.<..         ",
". . .           = S %.@ u p.y.u.<..         ",
". z &.6       . . j @.. ; c.y.i.7..         ",
". $.n.#.4     5 U X.8.n R x.h.i.+..         ",
". W s.g...* . G b.r.y.u.k.>.8.1.a .         ",
". g 2.3.g.E o c -.~ :.K 1.p C F .           ",
"  . P 4.5.d.b > ! V F N N C K . . .         ",
"    $ I a.f.Q O c O.k t.0.9.H , 6.' .       ",
"      - v T k X 7 J e *.` A t f e.y..       ",
"      . : w q < i L m / K i s [ =.>..       ",
"        > < r Z +.9.*.h.l.r.} l.t.M .       ",
"        . . 8 C H _ ( *.h.9.] h.<..         ",
"            - + y  ._ B j v.8.L ;           ",
"              & * d ;.N . Y b.+..           ",
"            3   % 1 D h # - o.E $   2       ",
"              2 3                 2         ",
"              2 2 2 2 2 2 2 3 2 2           "
};
