/* XPM */
static char *result[] = {
/* columns rows colors chars-per-pixel */
"22 22 12 1 ",
"  c black",
". c #24100C",
"X c #161C33",
"o c #442614",
"O c #5C391E",
"+ c #B47958",
"@ c #11428F",
"# c #1464BB",
"$ c #777E99",
"% c #A3A8B6",
"& c #C5AC8B",
"* c None",
/* pixels */
"*********  *    ******",
"*******   O oOO ******",
"****** OOoOoOO  ******",
"***** OOOOOOOOOo *****",
"**** OOOOOOOOOOOo ****",
"**** OOOooOOOoOOo ****",
"*** oOo++oOOOoooo ****",
"*** oo++++oOOooOo ****",
"*** o .&&.+Oo+OOo ****",
"****  .&&.&o++Ooo ****",
"***** &&&&&&++oo *****",
"***** +&&&&++ooo *****",
"****** +++++OOOo *****",
"******  o$$$OOoo *****",
"***** ++o%%$Oo&& *****",
"***** ++@####o&& *****",
"****** o####@@o ******",
"****** ###@  oo ******",
"***** oo#@ XX   ******",
"****X ooo XXXXXXX*****",
"****XXXXXXXXXXXXX*****",
"*****XXXXXXXXXXX******"
};
