/* XPM */
static char *result[] = {
/* columns rows colors chars-per-pixel */
"22 22 198 2 ",
"   c black",
".  c #030202",
"X  c #000006",
"o  c #030406",
"O  c #060506",
"+  c #0A0100",
"@  c #080605",
"#  c #0F0A07",
"$  c #00010D",
"%  c gray3",
"&  c #0A0909",
"*  c #090B0B",
"=  c #0B0A0A",
"-  c #0E0C09",
";  c #0D0C0A",
":  c #0F0F0E",
">  c #0E0F0F",
",  c #11100E",
"<  c #11100F",
"1  c #13100E",
"2  c #0B0D17",
"3  c #0F1011",
"4  c #131210",
"5  c #141313",
"6  c #181512",
"7  c #191512",
"8  c #191612",
"9  c #191717",
"0  c #151618",
"q  c #17171D",
"w  c #1C1A19",
"e  c #1C1D1E",
"r  c #2B1709",
"t  c #301C0F",
"y  c #221710",
"u  c #251811",
"i  c #251A13",
"p  c #21201F",
"a  c #322217",
"s  c #35261B",
"d  c #36271C",
"f  c #3B271B",
"g  c #38291E",
"h  c #0F1325",
"j  c #12172A",
"k  c #161B30",
"l  c #171C31",
"z  c #181D32",
"x  c #1F2430",
"c  c #202122",
"v  c #272421",
"b  c #2E2C2B",
"n  c #342A22",
"m  c #352B22",
"M  c #332A24",
"N  c #2F3133",
"B  c #402614",
"V  c #56341C",
"C  c #413C3B",
"Z  c #46413E",
"A  c #5D4334",
"S  c #5F4435",
"D  c #614738",
"F  c #2A3040",
"G  c #393C40",
"H  c #373F51",
"J  c #3D414E",
"K  c #424448",
"L  c #4F4B4B",
"P  c #4F5357",
"I  c #654E41",
"U  c #684E40",
"Y  c #675044",
"T  c #6C5447",
"R  c #70574A",
"E  c #725848",
"W  c #71594B",
"Q  c #755B4C",
"!  c #795E4F",
"~  c #655754",
"^  c #615B58",
"/  c #786253",
"(  c #6B6564",
")  c #726765",
"_  c #7F7876",
"`  c #806857",
"'  c #836B5C",
"]  c #856E5E",
"[  c #876F5E",
"{  c #876E5F",
"}  c #816C61",
"|  c #8A7263",
" . c #8C7262",
".. c #8A7366",
"X. c #8E7565",
"o. c #88746B",
"O. c #8B786F",
"+. c #937969",
"@. c #957A68",
"#. c #8E7970",
"$. c #8F7D75",
"%. c #817A78",
"&. c #807A7A",
"*. c #857D7C",
"=. c #857E7D",
"-. c #977F70",
";. c #917F76",
":. c #9C8372",
">. c #9F8573",
",. c #9F8778",
"<. c #9E8779",
"1. c #A78A79",
"2. c #A78B79",
"3. c #A38B7E",
"4. c #AF927E",
"5. c #837E83",
"6. c #838A8E",
"7. c #8E888D",
"8. c #908887",
"9. c #998880",
"0. c #928A88",
"q. c #9F8E88",
"w. c #8F959C",
"e. c #969095",
"r. c #999292",
"t. c #9C9493",
"y. c #9F9898",
"u. c #A38F87",
"i. c #A49188",
"p. c #A49089",
"a. c #A2938E",
"s. c #A9968C",
"d. c #B8A69E",
"f. c #979EAE",
"g. c #8190B3",
"h. c #8897BA",
"j. c #939CB2",
"k. c #9AA0A8",
"l. c #99A1AC",
"z. c #96A1B4",
"x. c #9FA9BB",
"c. c #9EA9BF",
"v. c #B6A9A6",
"b. c #B9ABA5",
"n. c #B7ACA9",
"m. c #B8ACAA",
"M. c #BFB0AA",
"N. c #BBB1AE",
"B. c #BCB0AD",
"V. c #A0AABE",
"C. c #BFB3B1",
"Z. c #C0B1AB",
"A. c #C1B2AD",
"S. c #C9B5AC",
"D. c #C0B4B1",
"F. c #C2B7B5",
"G. c #C5BAB7",
"H. c #C9B9B4",
"J. c #C4BAB8",
"K. c #C5BAB8",
"L. c #C6BBB9",
"P. c #C7BDBC",
"I. c #C8BDBB",
"U. c #CFBFB9",
"Y. c #C9BEBC",
"T. c #CABFBD",
"R. c #C9BFBE",
"E. c #CABFBE",
"W. c #CBC0BE",
"Q. c #CAC0BF",
"!. c #CBC0BF",
"~. c #CFC3BF",
"^. c #D0C1BC",
"/. c #8D9DC1",
"(. c #9FAFC9",
"). c #B6C1D2",
"_. c #CDC2C0",
"`. c #CCC3C3",
"'. c #CDC4C3",
"]. c #CEC4C3",
"[. c #CFC5C5",
"{. c #D0C6C5",
"}. c #D1C7C7",
"|. c #D5C9C5",
" X c #D5CAC7",
".X c #D7CBC9",
"XX c #D8CCC9",
"oX c #DDD1CE",
"OX c #DFD2D0",
"+X c #DDD3D2",
"@X c #E0D3D1",
"#X c #E0D4D1",
"$X c #E5D8D6",
"%X c #E9DCDA",
"&X c #EEE2E1",
"*X c #F8E9E5",
"=X c #E6F1FE",
"-X c None",
/* pixels */
"-X-X-X-X-X-X-X-X-X-X-X-X-X-X-X-X-X-X-X-X-X-X",
"-X-X-X-X-X-X-X            -X-X-X-X-X-X-X-X-X",
"-X-X-X-X-X-X  *.=.=.=.=.8.  -X-X-X-X-X-X-X-X",
"-X-X-X-X-X  ( .XXXXXXXXX@X_ : -X-X-X-X-X    ",
"-X-X-X-X-XL oXL.R.R.Q.L.P.&Xp -X-X-X-XN P 0 ",
"-X-X-X-X= #XL.L.b.Z.M.L.A.U.w -X-X-Xc l.=XK ",
"-X-X-X-X& W.L.L.-.' ` G... .1 -X-X> k.c.).G ",
"-X-X-X-X& W.L.L.Y.= . F.9 . -X-X  w.V.j.g.x ",
"-X-X-X-X& [.L.L.!.    F.O       6.x.z.h.F -X",
"-X-X-X-X  3.`.{.}.0.r.K.y.t.3 r f.(./.H o -X",
"-X-X-X% &.d.s.$.;.+Xi.'.p.%Xe t ~ ) J o -X-X",
"-X-X-X  S.a.@.Q A 9.S q.D u.* u B V + -X-X-X",
"-X-X-XC <.E / :.#.} O.U o.! M i y f # -X-X-X",
"-X-X4 $XT.[ s ] n.D.J.Y m.,.4.6     -X-X-X-X",
"-X-X< _.N.a R d s T W g I X.>.7 -X-X-X-X-X-X",
"-X-X-X5 , @ +.| v.B.C.{ ^.v - -X-X-X-X-X-X-X",
"-X-X-X-X-X. 1.2.OXE.R.H.b -X-X-X-X-X-X-X-X-X",
"-X-X-X-X-X  m n Z  XI.].%.; -X-X-X-X-X-X-X-X",
"-X-X-X-Xk 2 $ $ X ^ ~.|.*X8 h -X-X-X-X-X-X-X",
"-X-X-Xl -X-X-X-X-X  5.7.e.q j z -X-X-X-X-X-X",
"-X-X-X-Xl l l l l -X-X-X-X-Xz -X-X-X-X-X-X-X",
"-X-X-X-Xl l l l l l l l l l l -X-X-X-X-X-X-X"
};
