/* XPM */
static char *skullwait5[] = {
/* columns rows colors chars-per-pixel */
"22 22 214 2 ",
"   c None",
".  c black",
"X  c #070605",
"o  c #040406",
"O  c #080909",
"+  c #0A0A0C",
"@  c #140700",
"#  c #1B0800",
"$  c #1D0E01",
"%  c #110C08",
"&  c #170E09",
"*  c #15110E",
"=  c #070A13",
"-  c #090B10",
";  c #080A14",
":  c #0A0D16",
">  c #080E1D",
",  c #0E1017",
"<  c #0F1018",
"1  c #181310",
"2  c #13141A",
"3  c #191A1A",
"4  c #1D1B1B",
"5  c #1E1C1C",
"6  c #1F1D1C",
"7  c #1D1D1E",
"8  c #21160F",
"9  c #221A13",
"0  c #2A211C",
"q  c #3B271A",
"w  c #37291F",
"e  c #0A1024",
"r  c #111629",
"t  c #171C31",
"y  c #181D32",
"u  c #191E33",
"i  c #272424",
"p  c #28292A",
"a  c #2D2B2B",
"s  c #352720",
"d  c #342B26",
"f  c #332D2B",
"g  c #3E322A",
"h  c #343334",
"j  c #333537",
"k  c #452C1C",
"l  c #523018",
"z  c #433228",
"x  c #443934",
"c  c #413E3D",
"v  c #443F3E",
"b  c #523F32",
"n  c #524136",
"m  c #544236",
"M  c #584233",
"N  c #52443B",
"B  c #554638",
"V  c #5E4B3F",
"C  c #614638",
"Z  c #2F364B",
"A  c #3B445A",
"S  c #474443",
"D  c #4B4245",
"F  c #4E4744",
"G  c #424548",
"H  c #4F4B4A",
"J  c #514A47",
"K  c #514D4D",
"L  c #4E4E59",
"P  c #5F5B5B",
"I  c #604D40",
"U  c #695042",
"Y  c #6C5346",
"T  c #61504A",
"R  c #6E5649",
"E  c #705748",
"W  c #715849",
"Q  c #725B4D",
"!  c #785D4F",
"~  c #7B5E4F",
"^  c #685C54",
"/  c #615C58",
"(  c #615C5B",
")  c #6A5C5B",
"_  c #755E51",
"`  c #755E52",
"'  c #736052",
"]  c #796252",
"[  c #7A6254",
"{  c #7B6558",
"}  c #7C655B",
"|  c #7C685E",
" . c #49536A",
".. c #656060",
"X. c #6D6766",
"o. c #60656F",
"O. c #63696F",
"+. c #766C6C",
"@. c #73717A",
"#. c #777B7F",
"$. c #7F7978",
"%. c #826758",
"&. c #836D5F",
"*. c #826D61",
"=. c #836F65",
"-. c #8C7363",
";. c #8F7463",
":. c #8A7365",
">. c #8C776E",
",. c #927868",
"<. c #937969",
"1. c #977D6D",
"2. c #967E6E",
"3. c #987F6F",
"4. c #8E7D75",
"5. c #837D7C",
"6. c #958076",
"7. c #9B8577",
"8. c #9D8474",
"9. c #99847A",
"0. c #9F897C",
"q. c #A28573",
"w. c #A28A7B",
"e. c #AD907D",
"r. c #B5957F",
"t. c #787E83",
"y. c #7D8AA9",
"u. c #8F8785",
"i. c #82828A",
"p. c #848088",
"a. c #948C8B",
"s. c #988F8D",
"d. c #868C93",
"f. c #9B9291",
"g. c #91979D",
"h. c #A38E81",
"j. c #A18D85",
"k. c #A59085",
"l. c #A3938D",
"z. c #AF9C93",
"x. c #AF9E94",
"c. c #A0999A",
"v. c #A69C9B",
"b. c #A79E9C",
"n. c #AB9D98",
"m. c #B4A29B",
"M. c #B0A19C",
"N. c #B2A39E",
"B. c #BEAA9F",
"V. c #8E95A0",
"C. c #8D98AF",
"Z. c #8A98B8",
"A. c #949EB3",
"S. c #ADA3A1",
"D. c #B7A6A0",
"F. c #B9A9A2",
"G. c #B9AAA4",
"H. c #B8ABA7",
"J. c #BEAEA8",
"K. c #B8AEAC",
"L. c #BAAFAD",
"P. c #BEB0AC",
"I. c #BEB1AD",
"U. c #BFB2AE",
"Y. c #C1B2AB",
"T. c #C0B2AE",
"R. c #C3B6B2",
"E. c #C4B6B2",
"W. c #C0B6B5",
"Q. c #C5B8B5",
"!. c #C9BAB6",
"~. c #C5BAB8",
"^. c #C6BBB9",
"/. c #C6BBBA",
"(. c #C6BCBA",
"). c #C7BCBA",
"_. c #CABCB9",
"`. c #C8BCBA",
"'. c #C9BDBB",
"]. c #C8BEBD",
"[. c #C9BEBD",
"{. c #CABEBC",
"}. c #CBBFBD",
"|. c #C9BFBE",
" X c #CBBFBE",
".X c #CDC0BB",
"XX c #CAC0BF",
"oX c #CCC0BE",
"OX c #90A0C2",
"+X c #A3AEC5",
"@X c #ABB4C5",
"#X c #B2BDCF",
"$X c #A7B9D4",
"%X c #B0BCD0",
"&X c #CBC1C0",
"*X c #CDC3C1",
"=X c #CFC3C1",
"-X c #CCC3C2",
";X c #CDC4C3",
":X c #D6C7C2",
">X c #D3CBCB",
",X c #D7CBC9",
"<X c #D4CBCB",
"1X c #D5CBCB",
"2X c #D7CECC",
"3X c #D9CCCA",
"4X c #D9CDCB",
"5X c #DDD2D0",
"6X c #E2D6D3",
"7X c #E5D9D6",
"8X c #E8DBD6",
"9X c #EEE0DD",
"0X c #DFE9F8",
"qX c #F1E5E4",
/* pixels */
"              . . . . . .                   ",
"            . $.s.a.a.a.b.5                 ",
"          . ( XX3X,X,X,X6Xf.i               ",
"          c =X}.}.}.XX^.^.qXH               ",
"        . }.}.^.U.T.T.^.W.:Xc               ",
"        . L.}.XX7.<.;.U.k.q.d               ",
"        . L.}.^.XXf * S.J 1           . . . ",
"        . W.}.^.5X+ . b.a . .       h g.G . ",
"        . z.}.=X,XX.P L.5...5     a V.0X#.. ",
"        . I H.M.n.3X!.}.W.9XK   5 d.%X+Xo.. ",
"          . } Q C H.` M.} M.S + t.#XC.y.Z . ",
"        . . . &.E R U ` U %.& O.@XA.Z.A .   ",
"      . u.b.9 ;.L.H.Q.n l.F # i.$XOX .:     ",
"      . ,XB.M b ^ 4.j.w =.5 @ T +.L ,       ",
"      . D.j.9.n N | >.V =.x s k l #         ",
"      . Q }.,X7.}.,X=Xw.T.6.~ z q 8         ",
"        . L.=X<.U.=X0.<.3.] ~ 0 .           ",
"        r 5 ;.H.7Xh ' <.e.g &               ",
"          . z.8X( . ] r.N < >               ",
"      t   : @.i.= : F ) 2 e   u             ",
"        t                 u t               ",
"          t t t t t t t t t t               "
};
