/* XPM */
static char *skullwait4[] = {
/* columns rows colors chars-per-pixel */
"22 22 189 2 ",
"   c None",
".  c black",
"X  c #010000",
"o  c #020202",
"O  c #030305",
"+  c #050504",
"@  c #070607",
"#  c #070707",
"$  c #00020B",
"%  c #06070A",
"&  c #07090D",
"*  c #0A0908",
"=  c #0A0909",
"-  c #0B0A0A",
";  c #110600",
":  c #17100A",
">  c #19120E",
",  c #010513",
"<  c #090B15",
"1  c #0B0D14",
"2  c #0B0D15",
"3  c #0A0D16",
"4  c #0B0F1B",
"5  c #121111",
"6  c #131414",
"7  c #1E1B19",
"8  c #1F1D1D",
"9  c #2F251E",
"0  c #3E2413",
"q  c #31241A",
"w  c #1E1F20",
"e  c #10152A",
"r  c #13182E",
"t  c #171C31",
"y  c #181D33",
"u  c #2B2522",
"i  c #2B2A2B",
"p  c #2E2B29",
"a  c #332920",
"s  c #352A23",
"d  c #3C2C23",
"f  c #3C2E24",
"g  c #3E342D",
"h  c #242A3B",
"j  c #333030",
"k  c #353333",
"l  c #383535",
"z  c #393636",
"x  c #343539",
"c  c #363738",
"v  c #402A1C",
"b  c #54321A",
"n  c #403228",
"m  c #443428",
"M  c #453529",
"N  c #44352A",
"B  c #43372E",
"V  c #49392C",
"C  c #4A382C",
"Z  c #4E392D",
"A  c #4F3B2F",
"S  c #4C3D34",
"D  c #423E3D",
"F  c #44403F",
"G  c #584438",
"H  c #614839",
"J  c #664C3E",
"K  c #303648",
"L  c #3D465A",
"P  c #46494C",
"I  c #524842",
"U  c #584941",
"Y  c #51484A",
"T  c #534E4B",
"R  c #5C4F4C",
"E  c #454856",
"W  c #4B4F57",
"Q  c #565251",
"!  c #684F42",
"~  c #695243",
"^  c #70584A",
"/  c #715A4C",
"(  c #675959",
")  c #755E52",
"_  c #7D6253",
"`  c #7A6459",
"'  c #7C665A",
"]  c #5D6064",
"[  c #676160",
"{  c #6D6766",
"}  c #6E6867",
"|  c #6F6968",
" . c #756B6A",
".. c #7B7473",
"X. c #757179",
"o. c #866D5A",
"O. c #836A5C",
"+. c #846B5D",
"@. c #856D5D",
"#. c #806A60",
"$. c #877166",
"%. c #887060",
"&. c #8B7161",
"*. c #8C786D",
"=. c #8F786D",
"-. c #947B6B",
";. c #987F6E",
":. c #857974",
">. c #998070",
",. c #988071",
"<. c #9A8373",
"1. c #9A8375",
"2. c #90847E",
"3. c #A58B7A",
"4. c #A08A7E",
"5. c #A68D7E",
"6. c #B0917B",
"7. c #7E7981",
"8. c #7886A7",
"9. c #948E8F",
"0. c #978F8E",
"q. c #9D928E",
"w. c #858B93",
"e. c #8F959C",
"r. c #A39189",
"t. c #A2918A",
"y. c #B0998D",
"u. c #B79C8C",
"i. c #BA9E8C",
"p. c #B6A196",
"a. c #B5A59F",
"s. c #979EA7",
"d. c #8F9AB1",
"f. c #8896B8",
"g. c #949FB3",
"h. c #97A0AC",
"j. c #99A3B5",
"k. c #BAAAA2",
"l. c #BAA9A4",
"z. c #B6ACAA",
"x. c #BAADA9",
"c. c #BFB0AA",
"v. c #BBB0AE",
"b. c #BEB2AF",
"n. c #A3A8B7",
"m. c #BCB2B0",
"M. c #BFB3B0",
"N. c #C1B5B1",
"B. c #C4B7B3",
"V. c #C3B8B5",
"C. c #C3B8B6",
"Z. c #C4B8B5",
"A. c #C5BAB8",
"S. c #C6BBB9",
"D. c #C7BCBA",
"F. c #C7BCBB",
"G. c #C9BDBA",
"H. c #C8BDBB",
"J. c #C9BEBB",
"K. c #C8BDBC",
"L. c #C8BEBC",
"P. c #C9BFBD",
"I. c #CBBFBC",
"U. c #CABFBD",
"Y. c #8E9EC2",
"T. c #9EAFC9",
"R. c #A7B2C5",
"E. c #A6B1C6",
"W. c #AAB5CC",
"Q. c #B9BCC1",
"!. c #CAC0C0",
"~. c #CEC3C1",
"^. c #CEC5C4",
"/. c #D0C5C3",
"(. c #D3C7C6",
"). c #D2C8C6",
"_. c #D5C9C7",
"`. c #D7CBC8",
"'. c #D8CECD",
"]. c #DACECC",
"[. c #DBCFCD",
"{. c #DCD0CD",
"}. c #DDD0CE",
"|. c #E1D3CF",
" X c #E5D8D5",
".X c #E4D8D6",
"XX c #EBDEDC",
"oX c #ECDFDE",
"OX c #E3EEFB",
/* pixels */
"                                            ",
"                + + + + + +                 ",
"              + [ } { { { ..+               ",
"              F _.}.}.}.}.XX} 5             ",
"            8 (.U.S.S.S.S.S.XXl             ",
"          + S.S.S.S.S.S.S.S.[.j             ",
"          + U.S.U.1.5.5.Z.y.i.u     + + +   ",
"          + S.S.S.k.g 9 v.I s       P e.c + ",
"          + ^.S.S.[.+ + z.5 + +   c h.OX]   ",
"          + v.U.U._.D j M.Q l + w s.R.W.W   ",
"          + +.C.M.v.(.U.S.U. Xp w.R.d.8.h   ",
"          + + 1.) ^ U.' C. .k.Q.j.g.f.K +   ",
"        + 0.0.m &.! ' J $.J _ n.T.Y.L $     ",
"        * [.p.A +.&.t.a.A t.G R  .E &       ",
"        * U.5.+.A ~ 2.q.q :.U 0 b ;         ",
"        * ^.^.1.S m m m m d ^ d v :         ",
"        * U.S.-.Z.S.S.^.1.C.*.> +           ",
"          8 8 x.U. Xp *.;.y.s 4             ",
"          , + `.|.Y + +.6.A 3 r             ",
"        t   3 X.7.$ 3 Y ( 3 e   t           ",
"          t                 y t             ",
"          t t t t t t t t t t t             "
};
