/* XPM */
static char *result[] = {
/* columns rows colors chars-per-pixel */
"22 22 188 2 ",
"   c black",
".  c #000003",
"X  c #040100",
"o  c #060403",
"O  c #000004",
"+  c #0D0B09",
"@  c #120F0C",
"#  c #130F0D",
"$  c #16110C",
"%  c #000210",
"&  c #010514",
"*  c #030816",
"=  c #0E0F10",
"-  c #080914",
";  c #090E1D",
":  c #171512",
">  c #151516",
",  c #181716",
"<  c #191919",
"1  c #1D1C1B",
"2  c #1D1E1E",
"3  c #321D0F",
"4  c #24201E",
"5  c #2F2118",
"6  c #372010",
"7  c #332014",
"8  c #3E2A1C",
"9  c #171C30",
"0  c #171C31",
"q  c #1C2130",
"w  c #222020",
"e  c #272424",
"r  c #2C2521",
"t  c #262829",
"y  c #302D2A",
"u  c #352C2A",
"i  c #302E2F",
"p  c #272E3F",
"a  c #333030",
"s  c #3E3B3B",
"d  c #4F301A",
"f  c #413025",
"g  c #403127",
"h  c #4E392A",
"j  c #4C3C2F",
"k  c #524034",
"l  c #564337",
"z  c #5F4434",
"x  c #2F384D",
"c  c #494645",
"v  c #464449",
"b  c #524742",
"n  c #544741",
"m  c #534B47",
"M  c #655147",
"N  c #6C5548",
"B  c #69584D",
"V  c #725747",
"C  c #71594A",
"Z  c #71584B",
"A  c #735C4F",
"S  c #775E4F",
"D  c #635D5A",
"F  c #755E53",
"G  c #66615C",
"H  c #746054",
"J  c #776155",
"K  c #7F6351",
"L  c #7C6355",
"P  c #7B655A",
"I  c #666260",
"U  c #686261",
"Y  c #6A6463",
"T  c #6E6968",
"R  c #6F6968",
"E  c #746B67",
"W  c #706A69",
"Q  c #716B6A",
"!  c #716E6E",
"~  c #756E6D",
"^  c #77706F",
"/  c #767070",
"(  c #7A7474",
")  c #7F7776",
"_  c #847065",
"`  c #8E7567",
"'  c #857168",
"]  c #887568",
"[  c #8C7769",
"{  c #907564",
"}  c #907566",
"|  c #937968",
" . c #9B7E6C",
".. c #8E7A72",
"X. c #817B7B",
"o. c #857878",
"O. c #887F7C",
"+. c #927E71",
"@. c #99806F",
"#. c #97857D",
"$. c #97857E",
"%. c #9A8478",
"&. c #737687",
"*. c #7B7C89",
"=. c #6E7994",
"-. c #6E7C9B",
";. c #7F868F",
":. c #7582A0",
">. c #8A8280",
",. c #8F8886",
"<. c #988780",
"1. c #968A84",
"2. c #9B8A82",
"3. c #9E8E87",
"4. c #988F8E",
"5. c #9B928F",
"6. c #968F92",
"7. c #9A9291",
"8. c #9E9796",
"9. c #9E989E",
"0. c #A9958D",
"q. c #AD988D",
"w. c #B89D8C",
"e. c #A89891",
"r. c #AC9A90",
"t. c #AD9B91",
"y. c #AF9E95",
"u. c #A79E9D",
"i. c #AA9F9B",
"p. c #B09E96",
"a. c #9299A1",
"s. c #8D9AB2",
"d. c #8B9AB6",
"f. c #929EB7",
"g. c #A1A7AD",
"h. c #B0A6A5",
"j. c #B7AAA6",
"k. c #BBADA7",
"l. c #B5ABAA",
"z. c #BBACA8",
"x. c #A0A8B2",
"c. c #C1ADA3",
"v. c #C3B1AA",
"b. c #C1B3AF",
"n. c #C6B6AF",
"m. c #C1B4B1",
"M. c #C2B5B2",
"N. c #C6B7B2",
"B. c #C3B8B5",
"V. c #C4B8B5",
"C. c #C5BAB7",
"Z. c #C5BAB8",
"A. c #C5BAB9",
"S. c #C7BCBA",
"D. c #C7BCBB",
"F. c #CBBDBA",
"G. c #C8BDBC",
"H. c #CEC0BC",
"J. c #D2C1BA",
"K. c #A1ADC1",
"L. c #A4AEC2",
"P. c #AEB9CC",
"I. c #B0B9C4",
"U. c #ADBDD4",
"Y. c #CAC1C0",
"T. c #CBC1C0",
"R. c #CDC3C1",
"E. c #D1C4C0",
"W. c #D1C5C1",
"Q. c #D7C7C2",
"!. c #D1C8C9",
"~. c #D4CCCD",
"^. c #D8CCCA",
"/. c #D8CECD",
"(. c #DBCFCD",
"). c #DCCFCD",
"_. c #DBD0CF",
"`. c #DCD0CF",
"'. c #CBD4DF",
"]. c #E0D3D1",
"[. c #E1D5D3",
"{. c #E1D6D5",
"}. c #E5D8D6",
"|. c #EADEDB",
" X c #E1DDE2",
".X c #F1E5E2",
"XX c #F0E4E3",
"oX c None",
/* pixels */
"oXoXoXoXoXoXoXoXoXoXoXoXoXoXoXoXoXoXoXoXoXoX",
"oXoXoXoXoXoXoXoXoXoXoXoXoXoXoXoXoXoXoXoXoXoX",
"oXoXoXoXoXoXoXoXoX          oXoXoXoXoXoXoXoX",
"oXoXoXoXoXoXoXoXe ~ U U U W s oXoXoXoXoXoXoX",
"oXoXoXoXoXoXoX1 4.|.).).).}.h.a oXoXoXoXoXoX",
"oXoXoXoXoXoX, >.[.Z.G.G.D.Z.`.7.  oXoXoXoXoX",
"oXoXoXoXoX  Q ].A.B.m.M.V.C.H.O.  oXoX> =   ",
"oXoXoXoXoX  Y ^.T.y.{ | r.k. .B   oXt '.a.  ",
"oXoXoXoXoX  Y ^.S.W.E @ D 5.# + oX2 I.L.g.  ",
"oXoXoXoXoX  T _.Z.(.I   c ,.    < x.K.f.=.  ",
"oXoXoXoXoX  n n.!./.u./ 8.l.( ! ;.P.s.-.q oX",
"oXoXoXoXoX  b c.e.<.b.E.z.V.v. XU.d.:.p oXoX",
"oXoXoXoXoXw ) q.K z _ ..P #.N 6.*.&.x   oXoX",
"oXoXoXoX  X.p.S @.` F J A Z M 3 d 6   oXoXoX",
"oXoXoXoX  R {.$.V t.Y.R.3.' N.C 7 8   oXoXoX",
"oXoXoXoX  ^ XX0.h 5 k L l f } H X o oXoXoXoX",
"oXoXoXoXoX: y 4 g +.i.j.2.%.1.$ oXoXoXoXoXoX",
"oXoXoXoXoXoX&   m Q.~.F.w.[ i ; oXoXoXoXoXoX",
"oXoXoXoXoXoXoX. G .XJ.] j r % oXoXoXoXoXoXoX",
"oXoXoXoXoX0 oX- v 9.o.u O * oX9 0 oXoXoXoXoX",
"oXoXoXoXoX0 0 oXoXoXoXoXoXoX0 0 0 oXoXoXoXoX",
"oXoXoXoXoXoX0 0 0 0 0 0 0 0 0 0 oXoXoXoXoXoX"
};
