/* XPM */
static char *skullwait6[] = {
/* columns rows colors chars-per-pixel */
"22 22 217 2 ",
"   c None",
".  c black",
"X  c #050404",
"o  c #040507",
"O  c #090000",
"+  c #070708",
"@  c #160500",
"#  c #100C08",
"$  c #15110E",
"%  c #070912",
"&  c #0C0E13",
"*  c #0A0D16",
"=  c #060C1F",
"-  c #090E1E",
";  c #111117",
":  c #141515",
">  c #181310",
",  c #13131E",
"<  c #12141D",
"1  c #12161E",
"2  c #1A1918",
"3  c #1F1E1E",
"4  c #261304",
"5  c #231812",
"6  c #271A12",
"7  c #2A211C",
"8  c #372318",
"9  c #30241D",
"0  c #1C1A20",
"q  c #171C31",
"w  c #181D33",
"e  c #191E34",
"r  c #1E2020",
"t  c #262423",
"y  c #262829",
"u  c #2D2A2A",
"i  c #2E2D2C",
"p  c #342923",
"a  c #302D2D",
"s  c #3C3938",
"d  c #452D1F",
"f  c #502E17",
"g  c #403228",
"h  c #41362F",
"j  c #4A382E",
"k  c #503C2E",
"l  c #4B3D33",
"z  c #423C38",
"x  c #4F4138",
"c  c #4E423C",
"v  c #5F4536",
"b  c #574438",
"n  c #59473B",
"m  c #5F4D3F",
"M  c #60483A",
"N  c #363F57",
"B  c #443D40",
"V  c #434142",
"C  c #444242",
"Z  c #5C4B41",
"A  c #5F4D45",
"S  c #554F4D",
"D  c #4C4F54",
"F  c #575251",
"G  c #5A5555",
"H  c #5E5755",
"J  c #53515B",
"K  c #51585D",
"L  c #5E5A5A",
"P  c #624F43",
"I  c #675143",
"U  c #695143",
"Y  c #685546",
"T  c #6C5447",
"R  c #665449",
"E  c #6D5548",
"W  c #765C4D",
"Q  c #765C4E",
"!  c #795D4E",
"~  c #665851",
"^  c #635C59",
"/  c #625D5C",
"(  c #6C5E5C",
")  c #705C50",
"_  c #745C50",
"`  c #65605F",
"'  c #7D6557",
"]  c #7F6656",
"[  c #77655A",
"{  c #7A6559",
"}  c #78655B",
"|  c #7D675C",
" . c #7D685C",
".. c #7F6A5C",
"X. c #444E67",
"o. c #505C76",
"O. c #656160",
"+. c #706A67",
"@. c #716B6A",
"#. c #766C6D",
"$. c #77716F",
"%. c #6A6871",
"&. c #696E72",
"*. c #6E757F",
"=. c #79767B",
"-. c #806456",
";. c #857066",
":. c #8E7462",
">. c #8D786F",
",. c #917766",
"<. c #927868",
"1. c #997F6E",
"2. c #987F6F",
"3. c #8B7A73",
"4. c #837C7A",
"5. c #998173",
"6. c #9C867C",
"7. c #A08371",
"8. c #A08779",
"9. c #A08A7D",
"0. c #AC8E7C",
"q. c #797F86",
"w. c #8D8786",
"e. c #89858D",
"r. c #968780",
"t. c #9C8980",
"y. c #9D8D83",
"u. c #9F8E85",
"i. c #938B8A",
"p. c #948C8B",
"a. c #878E97",
"s. c #898E93",
"d. c #9A9291",
"f. c #9F9593",
"g. c #91969D",
"h. c #A38E82",
"j. c #A58E80",
"k. c #A28E86",
"l. c #A99387",
"z. c #AA978D",
"x. c #AB978F",
"c. c #B99982",
"v. c #A79791",
"b. c #AA9B94",
"n. c #AA9B96",
"m. c #A49A99",
"M. c #A79D9C",
"N. c #AAA19F",
"B. c #B1A39E",
"V. c #B4A39C",
"C. c #808DAB",
"Z. c #8C97AE",
"A. c #8B99B7",
"S. c #939EB3",
"D. c #A69FA0",
"F. c #AFA8A7",
"G. c #B4A6A1",
"H. c #B7A7A0",
"J. c #B0A6A5",
"K. c #B8AAA4",
"L. c #BCACA4",
"P. c #BEACA6",
"I. c #B9ADA8",
"U. c #BBADA8",
"Y. c #B9B0AD",
"T. c #BFB2AE",
"R. c #C0B2AD",
"E. c #C8B4AB",
"W. c #C3B7B3",
"Q. c #C4B6B0",
"!. c #C4B7B3",
"~. c #C4B8B5",
"^. c #C5B8B6",
"/. c #C4B9B7",
"(. c #C5B9B7",
"). c #C5BAB8",
"_. c #C6BAB8",
"`. c #C7BBB9",
"'. c #C5BBBA",
"]. c #C6BCBA",
"[. c #C7BCBA",
"{. c #C6BEBD",
"}. c #CBBDB9",
"|. c #C8BDBC",
" X c #CBBFBD",
".X c #C9BFBE",
"XX c #CAC0BF",
"oX c #CCC0BD",
"OX c #CCC0BF",
"+X c #D1C3BF",
"@X c #90A0C1",
"#X c #9DA9C0",
"$X c #AFB9C8",
"%X c #AABCD7",
"&X c #B8C3D6",
"*X c #B9C4D5",
"=X c #CBC2C1",
"-X c #CFC2C0",
";X c #CFC3C0",
":X c #CDC4C3",
">X c #CFC4C4",
",X c #CEC5C5",
"<X c #CFC5C5",
"1X c #D5C6C1",
"2X c #D5C9C7",
"3X c #D7CBC9",
"4X c #D6CDCC",
"5X c #D6CECF",
"6X c #DACECC",
"7X c #DAD0CF",
"8X c #E2D5D3",
"9X c #E1D6D4",
"0X c #E7DAD8",
"qX c #EADCD8",
"wX c #EDDFD9",
"eX c #DAE5F4",
"rX c #EEE2E1",
/* pixels */
"              . . . . . .                   ",
"            . @.d.p.p.p.M.u                 ",
"            F _.6X3X3X3X8XM.a               ",
"          s /.=X X XOX_._.rX/ .             ",
"        . Y.=X_.Y.R.R./.W.1XS               ",
"        . N. X=X9.<.:.U.z.7.h               ",
"        . N. X_.+Xz $ d./ >           . . . ",
"        . F.OX_.8X3 . p.C . .       y g.D . ",
"        . t.OX=X7X$.L J.w.O.t     r a.eXs.. ",
"        . b B.J.n.2X X_.W.qX` . ; q.*X#X*.. ",
"          . _ W v B.| v.;.z.G + %.*XZ.C.N . ",
"        . . . | W T T _ E -.5 K $XS.A.X..   ",
"      . 4.D.7 ] L.U./.A r.G @ =.%X@Xo.*     ",
"      . _.E.M k ~ 3.j.h [ u O A @.J <       ",
"      . n.l.6.n c | >.P  .c 9 d f 4 .       ",
"      . I /.3X8.W.3X=Xj.L.t.! j 9 5         ",
"        . N.=X5.L.=Xj.,.1.] W p . .         ",
"          3  .J.0XC R 1.0.l # <             ",
"          . t.qX+.. T c.m ; -               ",
"      q   * %.e.< % B ( 0 =   w             ",
"        q                 w q               ",
"          q q w q q q q q q q               "
};
