/* XPM */
static char *skullwait2[] = {
/* columns rows colors chars-per-pixel */
"22 22 185 2 ",
"   c None",
".  c black",
"X  c #010101",
"o  c #070500",
"O  c #060403",
"+  c #000004",
"@  c #0B0500",
"#  c #0A0805",
"$  c #06060A",
"%  c #00030D",
"&  c #070808",
"*  c #0C0A0C",
"=  c #100B07",
"-  c #110D09",
";  c #170F0B",
":  c #110F0D",
">  c #14120F",
",  c #0B0E13",
"<  c #0C0E13",
"1  c #0D0E18",
"2  c #151213",
"3  c #151413",
"4  c #171615",
"5  c #1A1713",
"6  c #1E1611",
"7  c #181515",
"8  c #131418",
"9  c #10131E",
"0  c #171819",
"q  c #1E1D1C",
"w  c #201207",
"e  c #241811",
"r  c #26211F",
"t  c #26221F",
"y  c #392417",
"u  c #352419",
"i  c #3D2A1D",
"p  c #3F2A1C",
"a  c #3E2B1D",
"s  c #3F2B1F",
"d  c #0E1222",
"f  c #0F1324",
"g  c #181922",
"h  c #13172A",
"j  c #13182B",
"k  c #161B30",
"l  c #171C31",
"z  c #181D32",
"x  c #222020",
"c  c #232121",
"v  c #252322",
"b  c #212224",
"n  c #2D2B2B",
"m  c #312721",
"M  c #332922",
"N  c #382E24",
"B  c #322F2E",
"V  c #392F29",
"C  c #242830",
"Z  c #2F3134",
"A  c #353333",
"S  c #343637",
"D  c #3A3737",
"F  c #3F3B38",
"G  c #3E3C3C",
"H  c #402D20",
"J  c #433023",
"K  c #5A3A25",
"L  c #573B29",
"P  c #513A2D",
"I  c #564235",
"U  c #5C4333",
"Y  c #574538",
"T  c #624B3F",
"R  c #5A4C43",
"E  c #4B4F52",
"W  c #555050",
"Q  c #5C5151",
"!  c #5E5252",
"~  c #5B5655",
"^  c #63564E",
"/  c #6A564A",
"(  c #6F594D",
")  c #705749",
"_  c #70574A",
"`  c #755B4E",
"'  c #645750",
"]  c #655952",
"[  c #665A53",
"{  c #765F53",
"}  c #7B6153",
"|  c #7A6358",
" . c #786559",
".. c #7D665B",
"X. c #49536D",
"o. c #6D6766",
"O. c #776B65",
"+. c #736D6B",
"@. c #756F6D",
"#. c #6E6B73",
"$. c #696E71",
"%. c #8B7365",
"&. c #8A746A",
"*. c #937A69",
"=. c #947968",
"-. c #947B6B",
";. c #967D6D",
":. c #967D6E",
">. c #9A806F",
",. c #9D8372",
"<. c #A28571",
"1. c #A48873",
"2. c #A78A77",
"3. c #A48B7B",
"4. c #A78E7E",
"5. c #5D6A89",
"6. c #6D7B9D",
"7. c #817C85",
"8. c #84898D",
"9. c #818595",
"0. c #A68F81",
"q. c #A99081",
"w. c #AB9284",
"e. c #A5948B",
"r. c #B29888",
"t. c #AA9991",
"y. c #8E97A9",
"u. c #9399A1",
"i. c #8F9CB6",
"p. c #8F9DBB",
"a. c #97A2B6",
"s. c #97A5BC",
"d. c #98A3B8",
"f. c #9BA5B8",
"g. c #BBADA7",
"h. c #B9AFAC",
"j. c #A5AEBE",
"k. c #BFB3B0",
"l. c #BFB7B7",
"z. c #CAB3A7",
"x. c #C1B4B0",
"c. c #C0B4B1",
"v. c #C2B6B3",
"b. c #C2B8B7",
"n. c #C5B9B7",
"m. c #C5BAB7",
"M. c #CABAB3",
"N. c #C5BAB8",
"B. c #C6BAB8",
"V. c #C6BBB9",
"C. c #C6BBBA",
"Z. c #C7BCBA",
"A. c #C7BCBB",
"S. c #C8BDBB",
"D. c #CBBEBB",
"F. c #CCBDB9",
"G. c #C9BFBE",
"H. c #CABFBE",
"J. c #CAC0BE",
"K. c #CDC0BD",
"L. c #CEC2BD",
"P. c #CCC0BE",
"I. c #9DACCA",
"U. c #ADB7C4",
"Y. c #B3BCC8",
"T. c #CCC2C1",
"R. c #CFC3C1",
"E. c #CEC4C2",
"W. c #D0C3C1",
"Q. c #D1C6C4",
"!. c #D2C6C4",
"~. c #D7CBC8",
"^. c #D5CBCA",
"/. c #D7CCCB",
"(. c #DBCFCB",
"). c #DBD0CE",
"_. c #DCD0CD",
"`. c #E0D3D0",
"'. c #E2D6D3",
"]. c #E3D6D4",
"[. c #E4D8D6",
"{. c #E5DCDD",
"}. c #EDE0DD",
"|. c #CCD6E1",
" X c #D0D9E4",
/* pixels */
"                                            ",
"            . . . . . .                     ",
"          . @.o.o.o.o.@..                   ",
"          ~ [._._._._.].W                   ",
"        D ].V.V.V.V.V.V.[.3     0 x &       ",
"      x ~.V.V.V.V.V.V.V.Q.3   . u. XZ       ",
"      x (.V.v.:.w.w.V.w.r.: . 8.d.|.A       ",
"      x ~.V.m.t.m m V.V M . $.j.a.I.C       ",
"      x _.V.D.k.. . V.. . E U.d.p.X.<       ",
"      3 M.D.K.m.B A V.G : Y.s.i.5.% .       ",
"      t 4.V.k.v.Q.D.V.Q.P 9.y.6.< .         ",
"    x K.v.:.( ..T.{ T...u P U 3 .           ",
"    n ].%.p :._ &._ R _ T p K @             ",
"    t z.e.O.I p y H w p ` 6 e .             ",
"    = ..{.K.J ' ^ ] Y ] } . .               ",
"      8 h.g.0.~.~.D.,.K./ *                 ",
"        : 4.D.V.m.:.:.>.#                   ",
"      d > D.D.T.q :.:.1.. h                 ",
"      d 6 }.K.G . <.1.N 8 l                 ",
"    z h g 7.$.. 1 ~ ~ %     l               ",
"      z                 l l                 ",
"      l l l l l l l l l l l                 "
};
