/* XPM */
static char *skullwait3[] = {
/* columns rows colors chars-per-pixel */
"22 22 189 2 ",
"   c None",
".  c black",
"X  c #000101",
"o  c #000004",
"O  c #040406",
"+  c #040507",
"@  c #090000",
"#  c #0A0705",
"$  c #0A0907",
"%  c #00020F",
"&  c #110B07",
"*  c #120D0A",
"=  c #11100F",
"-  c #040710",
";  c #0A0C16",
":  c #0A0D18",
">  c #121010",
",  c #121111",
"<  c gray7",
"1  c #181615",
"2  c #181616",
"3  c #181717",
"4  c #1F1A17",
"5  c #10121B",
"6  c #1A1919",
"7  c #1F1D1B",
"8  c #271F17",
"9  c #2D1F15",
"0  c #211E1D",
"q  c #3F2514",
"w  c #30261F",
"e  c #35261E",
"r  c #0E1120",
"t  c #13192F",
"y  c #151A30",
"u  c #171C31",
"i  c #171C32",
"p  c #181D32",
"a  c #1D212E",
"s  c #232121",
"d  c #252323",
"f  c #232526",
"g  c #262424",
"h  c #292726",
"j  c #2C2A29",
"k  c #282A2D",
"l  c #352A23",
"z  c #352C25",
"x  c #3D2F24",
"c  c #3F3126",
"v  c #272C3A",
"b  c #353333",
"n  c #373434",
"m  c #373534",
"M  c #432C1E",
"N  c #55321A",
"B  c #463427",
"V  c #403228",
"C  c #43352A",
"Z  c #443428",
"A  c #44372D",
"S  c #483529",
"D  c #4B362A",
"F  c #4C372B",
"G  c #4F3A2E",
"H  c #473930",
"J  c #453B34",
"K  c #45413E",
"L  c #504037",
"P  c #614738",
"I  c #63493B",
"U  c #3B3D43",
"Y  c #363D4F",
"T  c #3E4042",
"R  c #494645",
"E  c #4D4A49",
"W  c #484B4E",
"Q  c #574C4D",
"!  c #404452",
"~  c #535659",
"^  c #664E41",
"/  c #6D5748",
"(  c #745C4F",
")  c #615554",
"_  c #635656",
"`  c #625D5B",
"'  c #725C50",
"]  c #745D51",
"[  c #786155",
"{  c #7F6657",
"}  c #7B6458",
"|  c #7B6559",
" . c #6D6766",
".. c #6F6968",
"X. c #746968",
"o. c #77716F",
"O. c #76737B",
"+. c #7C777F",
"@. c #816759",
"#. c #866E62",
"$. c #896F60",
"%. c #8C7262",
"&. c #8C7263",
"*. c #897368",
"=. c #937764",
"-. c #907767",
";. c #927868",
":. c #947B6B",
">. c #957D6D",
",. c #967D6D",
"<. c #8C817C",
"1. c #968174",
"2. c #988071",
"3. c #9C8679",
"4. c #A08878",
"5. c #A78D7D",
"6. c #AA8D78",
"7. c #7482A4",
"8. c #8F8888",
"9. c #928782",
"0. c #998E8A",
"q. c #8C9299",
"w. c #9F9695",
"e. c #A99080",
"r. c #A5938C",
"t. c #AD9588",
"y. c #AD978C",
"u. c #B69B8A",
"i. c #B79C8B",
"p. c #A89892",
"a. c #B3A29A",
"s. c #B2A29C",
"d. c #969EA6",
"f. c #8493B7",
"g. c #909BB2",
"h. c #949FB3",
"j. c #97A2B5",
"k. c #9EA7B4",
"l. c #9FAABF",
"z. c #A2AAB4",
"x. c #A0AABF",
"c. c #A5ADBE",
"v. c #BFB3B0",
"b. c #B5B8BE",
"n. c #C1B3AF",
"m. c #C0B5B3",
"M. c #C3B6B2",
"N. c #C3B7B4",
"B. c #C2B7B5",
"V. c #C5B9B6",
"C. c #C6BAB7",
"Z. c #CAB9B3",
"A. c #C5BAB8",
"S. c #C5BBB9",
"D. c #C6BAB8",
"F. c #C6BBB9",
"G. c #C7BCBA",
"H. c #C7BCBB",
"J. c #CABDBA",
"K. c #CBBEBB",
"L. c #C8BEBC",
"P. c #C9BEBC",
"I. c #C8BEBD",
"U. c #CABFBE",
"Y. c #CBC0BE",
"T. c #CBC1BF",
"R. c #8C9DC0",
"E. c #9CACC6",
"W. c #AEBACF",
"Q. c #CCC2C0",
"!. c #CDC4C3",
"~. c #D0C3C0",
"^. c #D0C4C2",
"/. c #D2C6C4",
"(. c #D3C8C6",
"). c #D4C8C6",
"_. c #D8CBC6",
"`. c #D4C9C8",
"'. c #D7CCC9",
"]. c #D8CDCB",
"[. c #DCD0CD",
"{. c #DCD1CF",
"}. c #DDD1CF",
"|. c #E3D5D1",
" X c #E2D6D2",
".X c #E4D8D4",
"XX c #E7DBD8",
"oX c #E9DDDA",
"OX c #E4EEFB",
/* pixels */
"                                            ",
"            . . . . . .                     ",
"          . .. . . . .o..                   ",
"          E }.}.}.}.}.XX`                   ",
"        j }.F.F.F.F.F.F.oXs                 ",
"      , ^.F.F.F.F.F.F.F.'.s                 ",
"      , ).F.F.2.e.5.F.t.i.4     . . .       ",
"      , ^.F.F.a.l w B.J l       ~ q.j       ",
"      , '.F.F.Q.. . B.. .     T k.OXE       ",
"      = Z.K.K.Y.b b B.R b . s z.E.W.U       ",
"      $ -.V.v.v.^.K.F.K. X0 d.x.h.7.a       ",
"      . @ 5.] ] Q.[ K.} n.b.j.h.f.v         ",
"    , w.8.B %.^ } P *.I @.x.E.R.Y .         ",
"    6  Xt.D $.%.r.a.D p.G ) X.! .           ",
"    3 ^.3.[ D / 9.0.9 <.L q N @             ",
"    3 ].Y.;.J Z Z Z Z x ( w M &             ",
"    3 ).B.;.F.F.F.K.;.V.#.* .               ",
"      6 h B.K.}.s 1.;.i.8 r                 ",
"      % . .X_.K . -.6.c : i                 ",
"    i   5 +.O.. ; Q ) - t   i               ",
"      i                 p i                 ",
"      i i i i i i i i i i i                 "
};
