/* XPM */
static char *result[] = {
/* columns rows colors chars-per-pixel */
"22 22 166 2 ",
"   c black",
".  c #000001",
"X  c #030000",
"o  c #020201",
"O  c #020303",
"+  c #060300",
"@  c #000004",
"#  c #000005",
"$  c #000007",
"%  c #040404",
"&  c #060504",
"*  c #090707",
"=  c #080807",
"-  c #0D0A05",
";  c #0C0806",
":  c #00010D",
">  c #07080C",
",  c #0E0C0B",
"<  c #0B0D0E",
"1  c #0F0E0E",
"2  c gray6",
"3  c #100D0C",
"4  c #110E0C",
"5  c #100F0D",
"6  c #130F0D",
"7  c #100F0F",
"8  c #14100E",
"9  c #15110F",
"0  c #070810",
"q  c #080910",
"w  c #0F0F17",
"e  c #080D1A",
"r  c #0F1010",
"t  c #141313",
"y  c #151414",
"u  c #161414",
"i  c #141516",
"p  c #181718",
"a  c #241C15",
"s  c #211C1A",
"d  c #35261B",
"f  c #37281C",
"g  c #37281D",
"h  c #1B1E24",
"j  c #15192E",
"k  c #161B2E",
"l  c #151A30",
"z  c #171C31",
"x  c #2E2620",
"c  c #242628",
"v  c #282A2B",
"b  c #2E2D2E",
"n  c #3A3027",
"m  c #3E3127",
"M  c #393635",
"N  c #493121",
"B  c #4A3B2F",
"V  c #4B3B30",
"C  c #4A3E33",
"Z  c #5E412E",
"A  c #504032",
"S  c #5B463A",
"D  c #604637",
"F  c #624839",
"G  c #384157",
"H  c #4F4B4B",
"J  c #524D4B",
"K  c #514D4C",
"L  c #5B5655",
"P  c #684F41",
"I  c #6E5445",
"U  c #6E5649",
"Y  c #70594C",
"T  c #735B4E",
"R  c #685956",
"E  c #745D50",
"W  c #7A6455",
"Q  c #71605C",
"!  c #7B655A",
"~  c #7D6758",
"^  c #7C655A",
"/  c #7C665A",
"(  c #444D67",
")  c #4C5771",
"_  c #686261",
"`  c #6A6463",
"'  c #6F6968",
"]  c #736D6C",
"[  c #7B7473",
"{  c #7C7777",
"}  c #836B5C",
"|  c #89705F",
" . c #8C7363",
".. c #957865",
"X. c #957967",
"o. c #947B6B",
"O. c #947C6D",
"+. c #967C6C",
"@. c #977E6E",
"#. c #987F6F",
"$. c #827D7D",
"%. c #9A8170",
"&. c #9B8374",
"*. c #A38673",
"=. c #A18574",
"-. c #A88C7A",
";. c #7C8697",
":. c #76839F",
">. c #9E8D87",
",. c #8F949A",
"<. c #AE9585",
"1. c #A1908A",
"2. c #AA988E",
"3. c #AA9A95",
"4. c #AD9E99",
"5. c #BAA296",
"6. c #B4A39B",
"7. c #B5A39D",
"8. c #B5A49D",
"9. c #B6A49D",
"0. c #8E96A6",
"q. c #979DA6",
"w. c #98A2B7",
"e. c #98A3B8",
"r. c #B2A7A3",
"t. c #B6AAA6",
"y. c #BAABA7",
"u. c #BFB1AD",
"i. c #C2ACA0",
"p. c #C4ADA1",
"a. c #C3B3AE",
"s. c #C1B4B1",
"d. c #C2B6B2",
"f. c #C2B6B3",
"g. c #C3B6B3",
"h. c #C4B9B7",
"j. c #CABBB7",
"k. c #C5BAB8",
"l. c #C6BAB8",
"z. c #C6BBB9",
"x. c #C6BCBA",
"c. c #CABEBB",
"v. c #C8BDBC",
"b. c #C8BEBC",
"n. c #C8BEBD",
"m. c #CDC0BD",
"M. c #CFC1BE",
"N. c #909EC0",
"B. c #97A5C6",
"V. c #CCC3C2",
"C. c #CDC3C2",
"Z. c #CFC4C1",
"A. c #CFC6C5",
"S. c #D4CBC9",
"D. c #DCCFCD",
"F. c #DCD1CE",
"G. c #DED2CF",
"H. c #C9D1DC",
"J. c #CBD3DE",
"K. c #DFD3D1",
"L. c #E1D6D5",
"P. c #E4D7D5",
"I. c #E5D9D8",
"U. c #E9DDDB",
"Y. c #ECE0DE",
"T. c None",
/* pixels */
"T.T.T.T.T.T.T.T.T.T.T.T.T.T.T.T.T.T.T.T.T.T.",
"T.T.T.T.T.T.T.T.T.T.T.T.T.T.T.T.T.T.T.T.T.T.",
"T.T.T.T.T.T.T.T.            T.T.T.T.T.T.T.T.",
"T.T.T.T.T.T.T.  ` _ _ _ _ '   T.T.T.T.T.T.T.",
"T.T.T.T.T.T.T.K G.D.D.D.D.P.L T.T.T.T.T.T.T.",
"T.T.T.T.T.T.M K.z.v.v.v.z.x.U.p T.T.T.T.T.T.",
"T.T.T.T.T.7 F.z.z.s.d.d.z.g.M.u T.r i % T.T.",
"T.T.T.T.T.1 Z.z.k.o.@.+.l.&.=.4   q.H.c T.T.",
"T.T.T.T.T.1 Z.z.z.u.9 6 h.s 8 o ,.w.J.v T.T.",
"T.T.T.T.T.2 S.z.z.n.    h.      0.e.B.h T.T.",
"T.T.T.T.T., i.V.A.A.] { k.$.[ & ;.N.G > T.T.",
"T.T.T.T.T.  V 6.>.1.L.9.C.8.Y.= :.) . T.T.T.",
"T.T.T.T.T.M b X.I D 3.D 4.F 7.a ( O T.T.T.T.",
"T.T.T.T.y P.j.} #./ E ! P ^ S Z X T.T.T.T.T.",
"T.T.T.T.t m. .g O.k.z.b.U c.< N ; T.T.T.T.T.",
"T.T.T.T.3 <.f.r.f m Y T d T * + T.T.T.T.T.T.",
"T.T.T.T.T.x I.C.W | a.t.~ y.5 T.T.T.T.T.T.T.",
"T.T.T.T.T.e J 5.-.n H 2.%.p.- T.T.T.T.T.T.T.",
"T.T.T.T.T.l   B C :   ..*.A w j T.T.T.T.T.T.",
"T.T.T.T.z k 0 @ # T.q R Q $ T.T.z T.T.T.T.T.",
"T.T.T.T.T.z T.T.T.z T.T.T.T.z z T.T.T.T.T.T.",
"T.T.T.T.T.z z z z z z z z z z z T.T.T.T.T.T."
};
