/* XPM */
static char *result[] = {
/* columns rows colors chars-per-pixel */
"22 22 174 2 ",
"   c black",
".  c #000001",
"X  c #020101",
"o  c #000003",
"O  c #030202",
"+  c #000006",
"@  c #080604",
"#  c #00020A",
"$  c #03040A",
"%  c #00010E",
"&  c #05080F",
"*  c gray3",
"=  c #0E0E0F",
"-  c #140D08",
";  c #080914",
":  c #000718",
">  c #060A1A",
",  c #0F121E",
"<  c #1A181A",
"1  c #281E16",
"2  c #2A1E18",
"3  c #171C30",
"4  c #171C31",
"5  c #191E34",
"6  c #1D222F",
"7  c #272224",
"8  c #2A2929",
"9  c #2D2A2A",
"0  c #2D2B2F",
"q  c #382E27",
"w  c #392F2A",
"e  c #3B332C",
"r  c #282F3C",
"t  c #343131",
"y  c #3F3C3B",
"u  c #443023",
"i  c #45362E",
"p  c #48382F",
"a  c #433A3A",
"s  c #403D3C",
"d  c #513D30",
"f  c #513E32",
"g  c #43403F",
"h  c #534337",
"j  c #504138",
"k  c #584638",
"l  c #604534",
"z  c #5A4E45",
"x  c #514B48",
"c  c #4D5053",
"v  c #585453",
"b  c #54575A",
"n  c #635143",
"m  c #685445",
"M  c #69594F",
"N  c #645B55",
"B  c #625C5B",
"V  c #625D5C",
"C  c #785F51",
"Z  c #776252",
"A  c #7B6152",
"S  c #796054",
"D  c #786155",
"F  c #7D6554",
"G  c #756358",
"H  c #776459",
"J  c #7C675B",
"K  c #7D675C",
"L  c #6C6665",
"P  c #736761",
"I  c #706662",
"U  c #7F6B61",
"Y  c #7F6C67",
"T  c #766D69",
"R  c #777270",
"E  c #7A7372",
"W  c #787473",
"Q  c #7B7573",
"!  c #7E7675",
"~  c #7D7776",
"^  c #7D7777",
"/  c #876D5A",
"(  c #83695D",
")  c #876E5D",
"_  c #847066",
"`  c #887163",
"'  c #897163",
"]  c #8D7565",
"[  c #867268",
"{  c #877369",
"}  c #88756C",
"|  c #8E7D75",
" . c #857D7C",
".. c #857E7D",
"X. c #877F7E",
"o. c #897D78",
"O. c #987F71",
"+. c #968178",
"@. c #9B877B",
"#. c #9D877B",
"$. c #A58B7A",
"%. c #A68D7D",
"&. c #6A748D",
"*. c #898282",
"=. c #8B8484",
"-. c #8B8685",
";. c #978781",
":. c #928A88",
">. c #938B89",
",. c #948D8C",
"<. c #958F8F",
"1. c #8A9098",
"2. c #A08D83",
"3. c #A28E84",
"4. c #A7968E",
"5. c #AA968D",
"6. c #B29582",
"7. c #BB9A85",
"8. c #AE9C92",
"9. c #A19999",
"0. c #A49C9A",
"q. c #AFA09A",
"w. c #B4A098",
"e. c #BBA69A",
"r. c #949AA0",
"t. c #AEA5A4",
"y. c #B5A6A0",
"u. c #B1A7A5",
"i. c #B1A8A6",
"p. c #BCA9A0",
"a. c #BBACA6",
"s. c #B2A9A8",
"d. c #BBAEA9",
"f. c #BFAFA9",
"g. c #B8AEAD",
"h. c #BEB1AD",
"j. c #C0A698",
"k. c #C0B2AE",
"l. c #C2B4AF",
"z. c #C6B4AF",
"x. c #C3B6B3",
"c. c #C2B8B7",
"v. c #C4B8B4",
"b. c #CBBAB3",
"n. c #CDBCB6",
"m. c #CEBDB6",
"M. c #C5BBB9",
"N. c #C6BAB8",
"B. c #C6BBB9",
"V. c #C6BBBA",
"C. c #C6BCBA",
"Z. c #C8BDBB",
"A. c #C9BEBC",
"S. c #C8BFBF",
"D. c #CAC0BF",
"F. c #CBC2C1",
"G. c #D5C9C7",
"H. c #D0C7C8",
"J. c #D6CBC9",
"K. c #D7CCCA",
"L. c #D7CDCC",
"P. c #D8CCC9",
"I. c #D9CDCA",
"U. c #DBCFCC",
"Y. c #DCD0CD",
"T. c #DBD1D2",
"R. c #DFD3D0",
"E. c #E0D3D1",
"W. c #E1D4D2",
"Q. c #E1D5D2",
"!. c #E6D7D3",
"~. c #E4D8D7",
"^. c #E0D8D8",
"/. c None",
/* pixels */
"/./././././././././././././././././././././.",
"/././././././././.          /./././././././.",
"/./././././././.y >.......:.g /././././././.",
"/././././././.t u.Q.P.P.P.W.i.s /./././././.",
"/./././././.9 0.U.C.D.D.Z.M.~.*.  /././././.",
"/././././.  X.R.V.h.a.f.x.v.n.T   /././././.",
"/././././.  E G.F.8.) F 4.q./ j * =   /././.",
"/././././.  E G.B.I.B O L  .O X c 1.  /././.",
"/././././.  ^ K.N.Y.v   V !     b r.  /././.",
"/././././.  M m.H.L.t.,.s.g.9.x r &.  /././.",
"/./././././.- G 3.} k.l.y.d.z.-.& 6 /./././.",
"/./././././.8 o.O.l U K J _ ( I   /././././.",
"/././././.  =.E.#.` [ { D S H 2 /./././././.",
"/././././.  Q e.A ;.c.A.| +.W   /./././././.",
"/././././.  h p.T.P u C f d i   /./././././.",
"/./././././.@ ~ ^.2.@.S.w.p     /./././././.",
"/./././././.o z %.5.J.b.$.] w   /./././././.",
"/./././././.+ k j.!.<.e n 6.' q /./././././.",
"/./././././.$ 1 N R 0 % < Z 7.m . /././././.",
"/././././.5 , #     > /.: 7 Y a ; /././././.",
"/././././.4 /././././.3 /./././././././././.",
"/./././././.4 4 4 4 4 4 4 4 4 4 /./././././."
};
