/* XPM */
static char *skullwait1[] = {
/* columns rows colors chars-per-pixel */
"22 22 204 2 ",
"   c None",
".  c black",
"X  c #020101",
"o  c #050302",
"O  c #000006",
"+  c #040404",
"@  c #050504",
"#  c #060605",
"$  c #070707",
"%  c #00000B",
"&  c #030408",
"*  c gray3",
"=  c #08090C",
"-  c gray6",
";  c #100A07",
":  c #16100B",
">  c #15100D",
",  c #16120F",
"<  c #0B0D13",
"1  c #070B1B",
"2  c #090D1D",
"3  c #121110",
"4  c #1C1610",
"5  c #10131F",
"6  c #13141C",
"7  c #14171E",
"8  c #1C1D1E",
"9  c #20150E",
"0  c #281B11",
"q  c #231F1C",
"w  c #311E12",
"e  c #23201C",
"r  c #26211E",
"t  c #352318",
"y  c #3E2C1E",
"u  c #0F1426",
"i  c #1C1E22",
"p  c #171C30",
"a  c #171C31",
"s  c #181D32",
"d  c #191E33",
"f  c #202124",
"g  c #262627",
"h  c #2C2823",
"j  c #2E2926",
"k  c #212229",
"l  c #20232B",
"z  c #312820",
"x  c #352E2B",
"c  c #322F2E",
"v  c #313233",
"b  c #343130",
"n  c #343131",
"m  c #373332",
"M  c #383532",
"N  c #3F3C3D",
"B  c #402715",
"V  c #56351F",
"C  c #413024",
"Z  c #453324",
"A  c #533F34",
"S  c #5A4030",
"D  c #564538",
"F  c #574538",
"G  c #5F4B40",
"H  c #584D4E",
"J  c #4F5255",
"K  c #595453",
"L  c #5A5554",
"P  c #664D40",
"I  c #604E46",
"U  c #685042",
"Y  c #695043",
"T  c #6A5244",
"R  c #605149",
"E  c #64524A",
"W  c #6F584B",
"Q  c #615454",
"!  c #605C5C",
"~  c #745D51",
"^  c #786054",
"/  c #7D6254",
"(  c #71645E",
")  c #686464",
"_  c #6E6866",
"`  c #636069",
"'  c #766962",
"]  c #706A68",
"[  c #6F7377",
"{  c #806B5E",
"}  c #856D5E",
"|  c #836F66",
" . c #837065",
".. c #897061",
"X. c #87736A",
"o. c #8A766C",
"O. c #907665",
"+. c #917766",
"@. c #927A6A",
"#. c #937A6A",
"$. c #957B68",
"%. c #947A6A",
"&. c #947B6B",
"*. c #957B6B",
"=. c #967C6C",
"-. c #987C6A",
";. c #8C7971",
":. c #9A806F",
">. c #9D826E",
",. c #988071",
"<. c #9D8473",
"1. c #9E8472",
"2. c #94827A",
"3. c #97847C",
"4. c #AC8E78",
"5. c #556180",
"6. c #6A799B",
"7. c #7A89AE",
"8. c #8E8685",
"9. c #868189",
"0. c #938A89",
"q. c #948C8B",
"w. c #888E94",
"e. c #A99386",
"r. c #AC9384",
"t. c #AD9586",
"y. c #A19188",
"u. c #A79B97",
"i. c #A49B99",
"p. c #AD9F9A",
"a. c #B0A49F",
"s. c #8F9AB1",
"d. c #8F9AB5",
"f. c #909BB2",
"g. c #929EB3",
"h. c #949EB4",
"j. c #95A0B6",
"k. c #94A2BA",
"l. c #ACA3A3",
"z. c #B2A6A2",
"x. c #B6A8A4",
"c. c #B6A9A5",
"v. c #B9A9A2",
"b. c #B9ACA9",
"n. c #BDAFAB",
"m. c #BCAFAC",
"M. c #BCB0AC",
"N. c #BEB1AD",
"B. c #A2ACBE",
"V. c #AAB2BB",
"C. c #BEB2B0",
"Z. c #BFB3B0",
"A. c #BEB3B1",
"S. c #BFB4B2",
"D. c #BFB5B4",
"F. c #C0B2AE",
"G. c #C0B3AF",
"H. c #C1B3AF",
"J. c #CCB5A9",
"K. c #C1B4B1",
"L. c #C2B4B0",
"P. c #C3B5B1",
"I. c #C3B6B2",
"U. c #C4B5B0",
"Y. c #C5B6B1",
"T. c #C3B8B3",
"R. c #C5B9B7",
"E. c #C6BAB7",
"W. c #C4BAB8",
"Q. c #C5BAB8",
"!. c #C6BBB8",
"~. c #C6BBB9",
"^. c #C7BDBB",
"/. c #C8BCB9",
"(. c #C8BDBA",
"). c #C9BFBD",
"_. c #C9BFBE",
"`. c #CBC0BE",
"'. c #D3C0B6",
"]. c #D1C3BF",
"[. c #A7B3CE",
"{. c #B0BAC9",
"}. c #B8C1CE",
"|. c #CCC3C1",
" X c #CCC2C2",
".X c #CCC3C3",
"XX c #CFC4C2",
"oX c #D0C6C5",
"OX c #D6CAC8",
"+X c #D7CBC9",
"@X c #D6CCCB",
"#X c #DBCFCC",
"$X c #C0C7D2",
"%X c #DED2D0",
"&X c #E2D4D0",
"*X c #E0D4D2",
"=X c #E0D5D4",
"-X c #E1D6D4",
";X c #E2D6D4",
":X c #E6D9D7",
">X c #EBDEDB",
",X c #D8E1EC",
"<X c #EAE2E3",
"1X c #F6E8E4",
/* pixels */
"              # # # # # #                   ",
"            * i.q.q.q.q.q.#                 ",
"          # 8.=X+X+X+X+XOX_ #               ",
"        3 _ :X~.(.(.(.~.(.=X#               ",
"        m >X~.R.n.F.F.~.F.P.#               ",
"        c #X~.N...#.=.~.#.#.#     # # #     ",
"        c #X~.(.u., q ~., ,     # w.V.8     ",
"        m =X~.`.l.# # ~.# # # # [ B.,Xf     ",
"        j '..XoXD.K ) ~.! K # J {.f.[.i     ",
"        ; } F.p.x.%XP.(.P.=Xm }.f.s.5.<     ",
"        * r -.P ~ n.T D.T N.$Xf.s.6.*       ",
"      m .Xz.#...P W T ^ T S j.k.7.6         ",
"      N =X} C e.P.x.a.C n.w G E k           ",
"      c J.y.( F ' 2.;.0 2.A y V #           ",
"      ,  .<XD.y E o.| F X.^ 9 t #           ",
"        f D.v.e.+X(.P.<.R.G & #             ",
"          4 e..XF.+.#.#.#.#                 ",
"        2 r ]..XD., >.#.<.#                 ",
"        1 j 1XR.M # 4.>.z 5 a               ",
"      s u k 9.` # 6 Q H &     a             ",
"        s                 a a               ",
"        a a a a a a a a a a a               "
};
