/* XPM */
static char *result[] = {
/* columns rows colors chars-per-pixel */
"22 22 200 2 ",
"   c black",
".  c #000006",
"X  c #090706",
"o  c #000008",
"O  c #160D07",
"+  c #000412",
"@  c #0D0F1A",
"#  c #090D1D",
"$  c #0B0D1C",
"%  c #141210",
"&  c #17141B",
"*  c #12161F",
"=  c #1C1F1F",
"-  c #361F0C",
";  c #342115",
":  c #362518",
">  c #34251B",
",  c #3B281C",
"<  c #171C30",
"1  c #171C31",
"2  c #1B202C",
"3  c #212324",
"4  c #212126",
"5  c #242527",
"6  c #372A20",
"7  c #342D2C",
"8  c #232B33",
"9  c #242A3B",
"0  c #2F3133",
"q  c #313335",
"w  c #383236",
"e  c #3B3837",
"r  c #3E3A3A",
"t  c #4D2D16",
"y  c #473327",
"u  c #4B3526",
"i  c #49382C",
"p  c #483A31",
"a  c #4A3B32",
"s  c #4E3E33",
"d  c #493C34",
"f  c #483D3F",
"g  c #53453A",
"h  c #574438",
"j  c #584538",
"k  c #59483A",
"l  c #5A493D",
"z  c #674C3C",
"x  c #3E4145",
"c  c #434041",
"v  c #4B4646",
"b  c #534749",
"n  c #585352",
"m  c #5D5959",
"M  c #5E5958",
"N  c #614F43",
"B  c #6A5444",
"V  c #61534C",
"C  c #6C584B",
"Z  c #6B5A4E",
"A  c #705848",
"S  c #7D5F4D",
"D  c #615C5B",
"F  c #745D50",
"G  c #745D51",
"H  c #66615F",
"J  c #766053",
"K  c #7B6052",
"L  c #7C6457",
"P  c #79645A",
"I  c #7F6A5F",
"U  c #646060",
"Y  c #666160",
"T  c #6F6661",
"R  c #6E6764",
"E  c #776861",
"W  c #746963",
"Q  c #7F6B61",
"!  c #716B69",
"~  c #716B6A",
"^  c #736C69",
"/  c #726C6A",
"(  c #7F726B",
")  c #7C716C",
"_  c #676771",
"`  c #7A7472",
"'  c #7D7774",
"]  c #806959",
"[  c #80685B",
"{  c #826B5A",
"}  c #856D5F",
"|  c #836D62",
" . c #8F7462",
".. c #87766D",
"X. c #8E796D",
"o. c #937966",
"O. c #967A6B",
"+. c #947C6E",
"@. c #897871",
"#. c #8F7E75",
"$. c #847C79",
"%. c #807C7C",
"&. c #857F7E",
"*. c #8A837F",
"=. c #97857E",
"-. c #97867E",
";. c #A38571",
":. c #A88D7A",
">. c #5F6B88",
",. c #657291",
"<. c #6C7998",
"1. c #807B82",
"2. c #8A8281",
"3. c #8C8483",
"4. c #8E8888",
"5. c #9A8A82",
"6. c #918A8A",
"7. c #A58F82",
"8. c #A4938A",
"9. c #A89489",
"0. c #A89891",
"q. c #AC9B96",
"w. c #AF9D94",
"e. c #A39A98",
"r. c #AD9F9A",
"t. c #B09D94",
"y. c #B19F97",
"u. c #B3A299",
"i. c #B4A299",
"p. c #B4A39B",
"a. c #BAA79E",
"s. c #BDA99E",
"d. c #979EA4",
"f. c #8E9BB4",
"g. c #8F9EBC",
"h. c #909CB6",
"j. c #9EA4AD",
"k. c #95A1B6",
"l. c #9FA7B1",
"z. c #9BA5BA",
"x. c #AEA3A0",
"c. c #AFA5A3",
"v. c #AFA6A4",
"b. c #B5A6A1",
"n. c #B0A6A5",
"m. c #B4AAA7",
"M. c #B9A9A0",
"N. c #BCAAA0",
"B. c #BAAAA5",
"V. c #B8ABA6",
"C. c #B9ABA6",
"Z. c #BAACA7",
"A. c #BCB0AB",
"S. c #BCB1AE",
"D. c #BDB3B1",
"F. c #BCB4B2",
"G. c #BDB4B2",
"H. c #BEB4B2",
"J. c #C0AEA5",
"K. c #C2B2AB",
"L. c #C2B3AE",
"P. c #C8B4AB",
"I. c #C4B7B3",
"U. c #C1B7B5",
"Y. c #C1B8B7",
"T. c #C6BBB8",
"R. c #C6BBB9",
"E. c #C6BBBA",
"W. c #C6BCBA",
"Q. c #C7BCBA",
"!. c #C6BCBB",
"~. c #C7BDBB",
"^. c #C8BEBC",
"/. c #C8BEBD",
"(. c #A2ADC1",
"). c #B2BAC6",
"_. c #BDC6D5",
"`. c #CAC0C0",
"'. c #CBC2C1",
"]. c #CBC2C2",
"[. c #CDC3C3",
"{. c #D0C3C0",
"}. c #D2C6C4",
"|. c #D1C7C6",
" X c #D0C7C7",
".X c #D0C8C8",
"XX c #D7CBC9",
"oX c #D7CCCA",
"OX c #D8CCC9",
"+X c #D9CDCA",
"@X c #DBCFCE",
"#X c #DCD1CE",
"$X c #E3D6D4",
"%X c #E0D7D6",
"&X c #EBDEDB",
"*X c #EEE1DF",
"=X c #C0D0E9",
"-X c #D8E2F0",
";X c #F5EAEA",
":X c None",
/* pixels */
":X:X:X:X:X:X              :X:X:X:X:X:X:X:X:X",
":X:X:X:X:X:Xv m.e.e.e.n.M   :X:X:X:X:X:X:X:X",
":X:X:X:X:Xr S.+X}.}.}.XXH.n :X:X:X:X:X:X:X:X",
":X:X:X:Xe c.OX~.'.'./.W.%X6.  :X:X:X:X:X:X:X",
":X:X:X  ' $X!.Z.i.N.L.I.P.)   :X:X:X:X:X:X:X",
":X:X:X  ! XX`.p.] B 5.r.A p   :X:X:Xq 3   :X",
":X:X:X  ! XXT.#XU   m 2.    :X:X:Xx -Xj.  :X",
":X:X:X  / oXR.+XY   D 3.      :X0 _.z.d.  :X",
":X:X:X  a J..X|.D.v.G.U.F.~   5 ).k.h.>.  :X",
":X:X:X6 8.M.X.P b.C.0.V.y.4.= l.(.f.,.* :X:X",
":X:X  W t.+. .z G J F I K V 8 =Xg.<.2 :X:X:X",
":X:X  %.B.C { 7.=.-.| [ E O 7 1._ 9 :X:X:X:X",
":X:X  ` ;X( u #.x.A...Q $.% ; t -   :X:X:X:X",
":X:X  H Y.@.y > h L j i O.Z   , :   :X:X:X:X",
":X:X:X      a s.[.].w.9.K.l       :X:X:X:X:X",
":X:X:X:X  d o.u. XQ.^.a.N X :X:X:X:X:X:X:X:X",
":X:X:X:Xo g :.} q.@XE.{.T   :X:X:X:X:X:X:X:X",
":X:X:X:X. k ;.S s &.&X*X*.  :X:X:X:X:X:X:X:X",
":X:X:X:X$ w b f & 4 ^ R c @ :X:X:X:X:X:X:X:X",
":X:X:X< :X:X:X:X:X#     + :X< :X:X:X:X:X:X:X",
":X:X:X1 1 1 1 1 1 :X:X:X:X1 1 :X:X:X:X:X:X:X",
":X:X:X:X1 1 1 1 1 1 1 1 1 1 :X:X:X:X:X:X:X:X"
};
