/* XPM */
static char *result[] = {
/* columns rows colors chars-per-pixel */
"22 22 165 2 ",
"   c black",
".  c #000203",
"X  c #070500",
"o  c #040403",
"O  c #060403",
"+  c #050504",
"@  c #060505",
"#  c #070605",
"$  c #060606",
"%  c #080606",
"&  c #080706",
"*  c #0A0806",
"=  c #0A0807",
"-  c #00010C",
";  c #00020E",
":  c #0A0909",
">  c #0C0B0B",
",  c #0F0E0B",
"<  c #0E0D0C",
"1  c #0F0E0E",
"2  c #100C0A",
"3  c #120F0D",
"4  c #100F0E",
"5  c #040918",
"6  c #0B0D18",
"7  c #111010",
"8  c #131313",
"9  c #161515",
"0  c #1D1710",
"q  c #181717",
"w  c #1A1817",
"e  c #111318",
"r  c #121319",
"t  c #11121E",
"y  c #1A1B1D",
"u  c #1E1D1D",
"i  c #1C1D1E",
"p  c #211813",
"a  c #201D1B",
"s  c #342418",
"d  c #121728",
"f  c #14192C",
"g  c #171C31",
"h  c #171C32",
"j  c #26282A",
"k  c #2D2A2A",
"l  c #332A22",
"z  c #362C24",
"x  c #3E2F23",
"c  c #3F2F27",
"v  c #3F3025",
"b  c #2D2F31",
"n  c #272D3C",
"m  c #292E3D",
"M  c #574236",
"N  c #5E4334",
"B  c #5E4435",
"V  c #5F4436",
"C  c #51453D",
"Z  c #5A4539",
"A  c #604B3C",
"S  c #694F41",
"D  c #6D584B",
"F  c #725D4E",
"G  c #635D5A",
"H  c #715D50",
"J  c #735C50",
"K  c #7A6051",
"L  c #796455",
"P  c #706B6B",
"I  c #797271",
"U  c #7B7574",
"Y  c #816C63",
"T  c #8A7364",
"R  c #8F7769",
"E  c #89756C",
"W  c #8A766C",
"Q  c #967C6C",
"!  c #947D6F",
"~  c #977F6F",
"^  c #9A7E6B",
"/  c #8F7B70",
"(  c #907B71",
")  c #917E75",
"_  c #988071",
"`  c #9A8070",
"'  c #9F8677",
"]  c #938178",
"[  c #A08573",
"{  c #A28878",
"}  c #A48B7B",
"|  c #AF927E",
" . c #7F8A9D",
".. c #7684A6",
"X. c #858085",
"o. c #918987",
"O. c #9B8982",
"+. c #9E8C84",
"@. c #938B8A",
"#. c #848D9F",
"$. c #958F94",
"%. c #A28C82",
"&. c #A79185",
"*. c #B59C8C",
"=. c #A39895",
"-. c #A39A98",
";. c #B09F96",
":. c #A9A09E",
">. c #AAA19F",
",. c #B7A399",
"<. c #8997BC",
"1. c #ACA2A0",
"2. c #B4A6A2",
"3. c #BEACA3",
"4. c #BEACA5",
"5. c #B3AAAA",
"6. c #B5AAA9",
"7. c #B4ABAB",
"8. c #BFB0AC",
"9. c #ABB3BF",
"0. c #C7B4AB",
"q. c #C4B5AF",
"w. c #C1B5B2",
"e. c #C0B5B3",
"r. c #C1B6B4",
"t. c #C4B9B5",
"y. c #C4B9B6",
"u. c #C5BAB7",
"i. c #CAB8B0",
"p. c #C3B9B8",
"a. c #C5BAB8",
"s. c #C5BBB9",
"d. c #C6BBB9",
"f. c #C7BCBA",
"g. c #C8BDBB",
"h. c #C8BEBC",
"j. c #C9BFBD",
"k. c #C9BFBE",
"l. c #CAC0C0",
"z. c #CBC1C1",
"x. c #CCC2C1",
"c. c #CDC3C3",
"v. c #CEC4C3",
"b. c #D0C5C1",
"n. c #D0C5C3",
"m. c #D0C6C5",
"M. c #D2C6C4",
"N. c #D3C7C5",
"B. c #D3C8C6",
"V. c #D4C8C6",
"C. c #D5C8C6",
"Z. c #D4C9C6",
"A. c #D5C9C7",
"S. c #D4C9C8",
"D. c #D4CBCB",
"F. c #D9CFCE",
"G. c #DDD0CE",
"H. c #C2CBD8",
"J. c #DFD4D2",
"K. c #E2D5D1",
"L. c #E7DBDA",
"P. c #E8DBD9",
"I. c #EDE1DE",
"U. c #D4DDE9",
"Y. c None",
/* pixels */
"Y.Y.Y.Y.Y.Y.Y.Y.            Y.Y.Y.Y.Y.Y.Y.Y.",
"Y.Y.Y.Y.Y.Y.Y.  >.-.-.-.-.:.  Y.Y.Y.Y.Y.Y.Y.",
"Y.Y.Y.Y.Y.Y.  @.A.M.M.M.M.Z.o.: Y.Y.Y.Y.Y.Y.",
"Y.Y.Y.Y.Y.> I G.s.z.z.z.d.l.L.7 Y.Y.Y.Y.Y.Y.",
"Y.Y.Y.Y.Y.q P.a.u.;.3.3.d.4.0.< Y.Y.Y.Y.Y.Y.",
"Y.Y.Y.Y.Y.9 N.d.y._ D D d.H F % j b $ Y.Y.Y.",
"Y.Y.Y.Y.Y.9 B.d.f.p.    d.      9.U.i Y.Y.Y.",
"Y.Y.Y.Y.Y.9 V.d.f.e.    d.@      .H.y Y.Y.Y.",
"Y.Y.Y.Y.Y.3 *.c.v.x.1.5.d.7.6.O #.<.e Y.Y.Y.",
"Y.Y.Y.Y.Y.  p &.Y E F./ m.( J.* ..m Y.Y.Y.Y.",
"Y.Y.Y.Y.1 U P ^ K V W N ] B %.= n   Y.Y.Y.Y.",
"Y.Y.Y.Y.u I.,.A { +.) O.S O.c o   Y.Y.Y.Y.Y.",
"Y.Y.Y.Y.w i.! C L =.2.2.Z 8..   Y.Y.Y.Y.Y.Y.",
"Y.Y.Y.Y.2 R D.h.s v J J x M +   Y.Y.Y.Y.Y.Y.",
"Y.Y.Y.Y.Y.8 n.w.~ k.g.f.` #   Y.Y.Y.Y.Y.Y.Y.",
"Y.Y.Y.Y.Y.Y.a ' t.g.B.} Q T & Y.Y.Y.Y.Y.Y.Y.",
"Y.Y.Y.Y.Y.Y.& q.j.r.k 0 [ | X Y.Y.Y.Y.Y.Y.Y.",
"Y.Y.Y.Y.Y.Y.4 S.g.C.  5 l z t Y.Y.Y.Y.Y.Y.Y.",
"Y.Y.Y.Y.Y.d , K.b.G 6 Y.; - Y.g Y.Y.Y.Y.Y.Y.",
"Y.Y.Y.Y.h f r $.X.  Y.g Y.Y.Y.Y.g Y.Y.Y.Y.Y.",
"Y.Y.Y.Y.Y.h Y.Y.Y.Y.g g g g g g Y.Y.Y.Y.Y.Y.",
"Y.Y.Y.Y.Y.g g g g g g g g g g g Y.Y.Y.Y.Y.Y."
};
