/* XPM */
static char *result[] = {
/* columns rows colors chars-per-pixel */
"22 22 100 2 ",
"   c #140806",
".  c #190B09",
"X  c #1F110D",
"o  c #1E1C15",
"O  c #191E19",
"+  c #24140F",
"@  c #2C180F",
"#  c #231611",
"$  c #2C1C14",
"%  c #321E16",
"&  c #192A15",
"*  c #0F3E1A",
"=  c #153118",
"-  c #153A1C",
";  c #2E2B1C",
":  c #322117",
">  c #392112",
",  c #342219",
"<  c #39251A",
"1  c #342B1B",
"2  c #3E2B1E",
"3  c #24341B",
"4  c #122B22",
"5  c #143627",
"6  c #1B3225",
"7  c #103428",
"8  c #1B352B",
"9  c #292D24",
"0  c #2F3428",
"q  c #30372B",
"w  c #32382B",
"e  c #422C1E",
"r  c #452E20",
"t  c #463122",
"y  c #4C3423",
"u  c #513625",
"i  c #553926",
"p  c #563B29",
"a  c #5A3E2A",
"s  c #0F4B21",
"d  c #0C472B",
"f  c #124C23",
"g  c #0E5323",
"h  c #07562E",
"j  c #0C4F31",
"k  c #124330",
"l  c #144833",
"z  c #194D30",
"x  c #0E5933",
"c  c #15543A",
"v  c #135C39",
"b  c #05662F",
"n  c #0E612A",
"m  c #056A2A",
"M  c #02772D",
"N  c #037B2E",
"B  c #076C33",
"V  c #0A6E35",
"C  c #136E32",
"Z  c #047730",
"A  c #0A7631",
"S  c #047D32",
"D  c #0A7C35",
"F  c #0E7239",
"G  c #12743C",
"H  c #127F3B",
"J  c #5E412D",
"K  c #61432D",
"L  c #634530",
"P  c #674932",
"I  c #6C4C33",
"U  c #714E34",
"Y  c #735136",
"T  c #765439",
"R  c #79563A",
"E  c #7C593D",
"W  c #7F5B40",
"Q  c #835F43",
"!  c #856144",
"~  c #886347",
"^  c #8A664A",
"/  c #8E694C",
"(  c #916B4E",
")  c #956F51",
"_  c #977053",
"`  c #9A7355",
"'  c #9E7759",
"]  c #A37B5D",
"[  c #078034",
"{  c #0A8236",
"}  c #0D853A",
"|  c #12863C",
" . c #12893E",
".. c #1A8C3D",
"X. c #19913F",
"o. c #198442",
"O. c #148B41",
"+. c #198F45",
"@. c #1A9440",
"#. c #AA815F",
/* pixels */
"@.{ [ | } D } } } M @.+.A S | } [  .} } S @.",
"S S [ }  .}  .} } S D S [ [ }  .{ O.{ } S { ",
" .N | S [ } } S Z D D D M | S { } } [ [ { { ",
" .[ } [ S o.m ; < $ % % % : n m @.N N } } { ",
"S S S  .A 3 2 / ) ! ( ) / Q y , C [  .} | S ",
"[ { N H 3 R #.R ~ ] ] ] ( U ] ^ 2 n  .[ } D ",
"N O.- & < ^ #./ ! Q / ] ] ) ` ' r = } N | } ",
"} & J 2 , P ` ] / U T W W W ` E r 1 g  .| N ",
"6 I P : r r P L ` _ ) ) ) ) W u J a * }  .M ",
"X J # i I y < I R R E a L R a y < K y s } N ",
"6 . i T I J : J T I a u y I R y : e a % f ..",
"z t E I i y # u Y p u T I I R t $ t E I $ | ",
"o R Y E I % % U R I a I P R R K < $ u I % x ",
"o Y R U y + p R T R K , t Y K R a   < i @ k ",
"o u p y # , I R U K K + $ u I R R u 4 z l F ",
"x j j c 4 i E T i u t + + t I R R E e 7 | [ ",
"[ { S v 4 u U U i y : O O < u U U I > 4 D D ",
"S O.} D d 9 w q w w 8 h G 5 0 q q w 9 d | } ",
"{ { @.{ | F B B G G b D { o.V G F B B }  .N ",
" .} D }  .S | M } } M } } [ } O.N | N  .} N ",
"{  .N [  .M } | { } N [  .N [ | N } | [ } S ",
"X.{ N { { S [  .S [ X...[ N } } N D  .S { @."
};
